<?xml version="1.0" encoding="utf-8" standalone="no"?>
<!DOCTYPE svg PUBLIC "-//W3C//DTD SVG 1.1//EN"
  "http://www.w3.org/Graphics/SVG/1.1/DTD/svg11.dtd">
<svg xmlns:xlink="http://www.w3.org/1999/xlink" width="397.778125pt" height="281.65625pt" viewBox="0 0 397.778125 281.65625" xmlns="http://www.w3.org/2000/svg" version="1.1">
 <metadata>
  <rdf:RDF xmlns:dc="http://purl.org/dc/elements/1.1/" xmlns:cc="http://creativecommons.org/ns#" xmlns:rdf="http://www.w3.org/1999/02/22-rdf-syntax-ns#">
   <cc:Work>
    <dc:type rdf:resource="http://purl.org/dc/dcmitype/StillImage"/>
    <dc:date>2026-06-03T13:27:38.511082</dc:date>
    <dc:format>image/svg+xml</dc:format>
    <dc:creator>
     <cc:Agent>
      <dc:title>Matplotlib v3.10.9, https://matplotlib.org/</dc:title>
     </cc:Agent>
    </dc:creator>
   </cc:Work>
  </rdf:RDF>
 </metadata>
 <defs>
  <style type="text/css">*{stroke-linejoin: round; stroke-linecap: butt}</style>
 </defs>
 <g id="figure_1">
  <g id="patch_1">
   <path d="M 0 281.65625 
L 397.778125 281.65625 
L 397.778125 0 
L 0 0 
z
" style="fill: #ffffff"/>
  </g>
  <g id="axes_1">
   <g id="patch_2">
    <path d="M 55.778125 244.078125 
L 390.578125 244.078125 
L 390.578125 22.318125 
L 55.778125 22.318125 
z
" style="fill: #ffffff"/>
   </g>
   <g id="matplotlib.axis_1">
    <g id="xtick_1">
     <g id="line2d_1">
      <path d="M 353.619683 244.078125 
L 353.619683 22.318125 
" clip-path="url(#pe0cfdef21a)" style="fill: none; stroke: #b0b0b0; stroke-opacity: 0.3; stroke-width: 0.8; stroke-linecap: square"/>
     </g>
     <g id="line2d_2">
      <defs>
       <path id="m5e0dcbb884" d="M 0 0 
L 0 3.5 
" style="stroke: #000000; stroke-width: 0.8"/>
      </defs>
      <g>
       <use xlink:href="#m5e0dcbb884" x="353.619683" y="244.078125" style="stroke: #000000; stroke-width: 0.8"/>
      </g>
     </g>
     <g id="text_1">
      <!-- $\mathdefault{10^{-14}}$ -->
      <g transform="translate(339.669683 258.676562) scale(0.1 -0.1)">
       <defs>
        <path id="DejaVuSans-31" d="M 794 531 
L 1825 531 
L 1825 4091 
L 703 3866 
L 703 4441 
L 1819 4666 
L 2450 4666 
L 2450 531 
L 3481 531 
L 3481 0 
L 794 0 
L 794 531 
z
" transform="scale(0.015625)"/>
        <path id="DejaVuSans-30" d="M 2034 4250 
Q 1547 4250 1301 3770 
Q 1056 3291 1056 2328 
Q 1056 1369 1301 889 
Q 1547 409 2034 409 
Q 2525 409 2770 889 
Q 3016 1369 3016 2328 
Q 3016 3291 2770 3770 
Q 2525 4250 2034 4250 
z
M 2034 4750 
Q 2819 4750 3233 4129 
Q 3647 3509 3647 2328 
Q 3647 1150 3233 529 
Q 2819 -91 2034 -91 
Q 1250 -91 836 529 
Q 422 1150 422 2328 
Q 422 3509 836 4129 
Q 1250 4750 2034 4750 
z
" transform="scale(0.015625)"/>
        <path id="DejaVuSans-2212" d="M 678 2272 
L 4684 2272 
L 4684 1741 
L 678 1741 
L 678 2272 
z
" transform="scale(0.015625)"/>
        <path id="DejaVuSans-34" d="M 2419 4116 
L 825 1625 
L 2419 1625 
L 2419 4116 
z
M 2253 4666 
L 3047 4666 
L 3047 1625 
L 3713 1625 
L 3713 1100 
L 3047 1100 
L 3047 0 
L 2419 0 
L 2419 1100 
L 313 1100 
L 313 1709 
L 2253 4666 
z
" transform="scale(0.015625)"/>
       </defs>
       <use xlink:href="#DejaVuSans-31" transform="translate(0 0.684375)"/>
       <use xlink:href="#DejaVuSans-30" transform="translate(63.623047 0.684375)"/>
       <use xlink:href="#DejaVuSans-2212" transform="translate(128.203125 38.965625) scale(0.7)"/>
       <use xlink:href="#DejaVuSans-31" transform="translate(186.855469 38.965625) scale(0.7)"/>
       <use xlink:href="#DejaVuSans-34" transform="translate(231.391602 38.965625) scale(0.7)"/>
      </g>
     </g>
    </g>
    <g id="xtick_2">
     <g id="line2d_3">
      <path d="M 310.139164 244.078125 
L 310.139164 22.318125 
" clip-path="url(#pe0cfdef21a)" style="fill: none; stroke: #b0b0b0; stroke-opacity: 0.3; stroke-width: 0.8; stroke-linecap: square"/>
     </g>
     <g id="line2d_4">
      <g>
       <use xlink:href="#m5e0dcbb884" x="310.139164" y="244.078125" style="stroke: #000000; stroke-width: 0.8"/>
      </g>
     </g>
     <g id="text_2">
      <!-- $\mathdefault{10^{-12}}$ -->
      <g transform="translate(296.189164 258.676562) scale(0.1 -0.1)">
       <defs>
        <path id="DejaVuSans-32" d="M 1228 531 
L 3431 531 
L 3431 0 
L 469 0 
L 469 531 
Q 828 903 1448 1529 
Q 2069 2156 2228 2338 
Q 2531 2678 2651 2914 
Q 2772 3150 2772 3378 
Q 2772 3750 2511 3984 
Q 2250 4219 1831 4219 
Q 1534 4219 1204 4116 
Q 875 4013 500 3803 
L 500 4441 
Q 881 4594 1212 4672 
Q 1544 4750 1819 4750 
Q 2544 4750 2975 4387 
Q 3406 4025 3406 3419 
Q 3406 3131 3298 2873 
Q 3191 2616 2906 2266 
Q 2828 2175 2409 1742 
Q 1991 1309 1228 531 
z
" transform="scale(0.015625)"/>
       </defs>
       <use xlink:href="#DejaVuSans-31" transform="translate(0 0.765625)"/>
       <use xlink:href="#DejaVuSans-30" transform="translate(63.623047 0.765625)"/>
       <use xlink:href="#DejaVuSans-2212" transform="translate(128.203125 39.046875) scale(0.7)"/>
       <use xlink:href="#DejaVuSans-31" transform="translate(186.855469 39.046875) scale(0.7)"/>
       <use xlink:href="#DejaVuSans-32" transform="translate(231.391602 39.046875) scale(0.7)"/>
      </g>
     </g>
    </g>
    <g id="xtick_3">
     <g id="line2d_5">
      <path d="M 266.658644 244.078125 
L 266.658644 22.318125 
" clip-path="url(#pe0cfdef21a)" style="fill: none; stroke: #b0b0b0; stroke-opacity: 0.3; stroke-width: 0.8; stroke-linecap: square"/>
     </g>
     <g id="line2d_6">
      <g>
       <use xlink:href="#m5e0dcbb884" x="266.658644" y="244.078125" style="stroke: #000000; stroke-width: 0.8"/>
      </g>
     </g>
     <g id="text_3">
      <!-- $\mathdefault{10^{-10}}$ -->
      <g transform="translate(252.708644 258.676562) scale(0.1 -0.1)">
       <use xlink:href="#DejaVuSans-31" transform="translate(0 0.765625)"/>
       <use xlink:href="#DejaVuSans-30" transform="translate(63.623047 0.765625)"/>
       <use xlink:href="#DejaVuSans-2212" transform="translate(128.203125 39.046875) scale(0.7)"/>
       <use xlink:href="#DejaVuSans-31" transform="translate(186.855469 39.046875) scale(0.7)"/>
       <use xlink:href="#DejaVuSans-30" transform="translate(231.391602 39.046875) scale(0.7)"/>
      </g>
     </g>
    </g>
    <g id="xtick_4">
     <g id="line2d_7">
      <path d="M 223.178125 244.078125 
L 223.178125 22.318125 
" clip-path="url(#pe0cfdef21a)" style="fill: none; stroke: #b0b0b0; stroke-opacity: 0.3; stroke-width: 0.8; stroke-linecap: square"/>
     </g>
     <g id="line2d_8">
      <g>
       <use xlink:href="#m5e0dcbb884" x="223.178125" y="244.078125" style="stroke: #000000; stroke-width: 0.8"/>
      </g>
     </g>
     <g id="text_4">
      <!-- $\mathdefault{10^{-8}}$ -->
      <g transform="translate(211.428125 258.676562) scale(0.1 -0.1)">
       <defs>
        <path id="DejaVuSans-38" d="M 2034 2216 
Q 1584 2216 1326 1975 
Q 1069 1734 1069 1313 
Q 1069 891 1326 650 
Q 1584 409 2034 409 
Q 2484 409 2743 651 
Q 3003 894 3003 1313 
Q 3003 1734 2745 1975 
Q 2488 2216 2034 2216 
z
M 1403 2484 
Q 997 2584 770 2862 
Q 544 3141 544 3541 
Q 544 4100 942 4425 
Q 1341 4750 2034 4750 
Q 2731 4750 3128 4425 
Q 3525 4100 3525 3541 
Q 3525 3141 3298 2862 
Q 3072 2584 2669 2484 
Q 3125 2378 3379 2068 
Q 3634 1759 3634 1313 
Q 3634 634 3220 271 
Q 2806 -91 2034 -91 
Q 1263 -91 848 271 
Q 434 634 434 1313 
Q 434 1759 690 2068 
Q 947 2378 1403 2484 
z
M 1172 3481 
Q 1172 3119 1398 2916 
Q 1625 2713 2034 2713 
Q 2441 2713 2670 2916 
Q 2900 3119 2900 3481 
Q 2900 3844 2670 4047 
Q 2441 4250 2034 4250 
Q 1625 4250 1398 4047 
Q 1172 3844 1172 3481 
z
" transform="scale(0.015625)"/>
       </defs>
       <use xlink:href="#DejaVuSans-31" transform="translate(0 0.765625)"/>
       <use xlink:href="#DejaVuSans-30" transform="translate(63.623047 0.765625)"/>
       <use xlink:href="#DejaVuSans-2212" transform="translate(128.203125 39.046875) scale(0.7)"/>
       <use xlink:href="#DejaVuSans-38" transform="translate(186.855469 39.046875) scale(0.7)"/>
      </g>
     </g>
    </g>
    <g id="xtick_5">
     <g id="line2d_9">
      <path d="M 179.697606 244.078125 
L 179.697606 22.318125 
" clip-path="url(#pe0cfdef21a)" style="fill: none; stroke: #b0b0b0; stroke-opacity: 0.3; stroke-width: 0.8; stroke-linecap: square"/>
     </g>
     <g id="line2d_10">
      <g>
       <use xlink:href="#m5e0dcbb884" x="179.697606" y="244.078125" style="stroke: #000000; stroke-width: 0.8"/>
      </g>
     </g>
     <g id="text_5">
      <!-- $\mathdefault{10^{-6}}$ -->
      <g transform="translate(167.947606 258.676562) scale(0.1 -0.1)">
       <defs>
        <path id="DejaVuSans-36" d="M 2113 2584 
Q 1688 2584 1439 2293 
Q 1191 2003 1191 1497 
Q 1191 994 1439 701 
Q 1688 409 2113 409 
Q 2538 409 2786 701 
Q 3034 994 3034 1497 
Q 3034 2003 2786 2293 
Q 2538 2584 2113 2584 
z
M 3366 4563 
L 3366 3988 
Q 3128 4100 2886 4159 
Q 2644 4219 2406 4219 
Q 1781 4219 1451 3797 
Q 1122 3375 1075 2522 
Q 1259 2794 1537 2939 
Q 1816 3084 2150 3084 
Q 2853 3084 3261 2657 
Q 3669 2231 3669 1497 
Q 3669 778 3244 343 
Q 2819 -91 2113 -91 
Q 1303 -91 875 529 
Q 447 1150 447 2328 
Q 447 3434 972 4092 
Q 1497 4750 2381 4750 
Q 2619 4750 2861 4703 
Q 3103 4656 3366 4563 
z
" transform="scale(0.015625)"/>
       </defs>
       <use xlink:href="#DejaVuSans-31" transform="translate(0 0.765625)"/>
       <use xlink:href="#DejaVuSans-30" transform="translate(63.623047 0.765625)"/>
       <use xlink:href="#DejaVuSans-2212" transform="translate(128.203125 39.046875) scale(0.7)"/>
       <use xlink:href="#DejaVuSans-36" transform="translate(186.855469 39.046875) scale(0.7)"/>
      </g>
     </g>
    </g>
    <g id="xtick_6">
     <g id="line2d_11">
      <path d="M 136.217086 244.078125 
L 136.217086 22.318125 
" clip-path="url(#pe0cfdef21a)" style="fill: none; stroke: #b0b0b0; stroke-opacity: 0.3; stroke-width: 0.8; stroke-linecap: square"/>
     </g>
     <g id="line2d_12">
      <g>
       <use xlink:href="#m5e0dcbb884" x="136.217086" y="244.078125" style="stroke: #000000; stroke-width: 0.8"/>
      </g>
     </g>
     <g id="text_6">
      <!-- $\mathdefault{10^{-4}}$ -->
      <g transform="translate(124.467086 258.676562) scale(0.1 -0.1)">
       <use xlink:href="#DejaVuSans-31" transform="translate(0 0.684375)"/>
       <use xlink:href="#DejaVuSans-30" transform="translate(63.623047 0.684375)"/>
       <use xlink:href="#DejaVuSans-2212" transform="translate(128.203125 38.965625) scale(0.7)"/>
       <use xlink:href="#DejaVuSans-34" transform="translate(186.855469 38.965625) scale(0.7)"/>
      </g>
     </g>
    </g>
    <g id="xtick_7">
     <g id="line2d_13">
      <path d="M 92.736567 244.078125 
L 92.736567 22.318125 
" clip-path="url(#pe0cfdef21a)" style="fill: none; stroke: #b0b0b0; stroke-opacity: 0.3; stroke-width: 0.8; stroke-linecap: square"/>
     </g>
     <g id="line2d_14">
      <g>
       <use xlink:href="#m5e0dcbb884" x="92.736567" y="244.078125" style="stroke: #000000; stroke-width: 0.8"/>
      </g>
     </g>
     <g id="text_7">
      <!-- $\mathdefault{10^{-2}}$ -->
      <g transform="translate(80.986567 258.676562) scale(0.1 -0.1)">
       <use xlink:href="#DejaVuSans-31" transform="translate(0 0.765625)"/>
       <use xlink:href="#DejaVuSans-30" transform="translate(63.623047 0.765625)"/>
       <use xlink:href="#DejaVuSans-2212" transform="translate(128.203125 39.046875) scale(0.7)"/>
       <use xlink:href="#DejaVuSans-32" transform="translate(186.855469 39.046875) scale(0.7)"/>
      </g>
     </g>
    </g>
    <g id="text_8">
     <!-- step size $h$ -->
     <g transform="translate(196.278125 272.35625) scale(0.1 -0.1)">
      <defs>
       <path id="DejaVuSans-73" d="M 2834 3397 
L 2834 2853 
Q 2591 2978 2328 3040 
Q 2066 3103 1784 3103 
Q 1356 3103 1142 2972 
Q 928 2841 928 2578 
Q 928 2378 1081 2264 
Q 1234 2150 1697 2047 
L 1894 2003 
Q 2506 1872 2764 1633 
Q 3022 1394 3022 966 
Q 3022 478 2636 193 
Q 2250 -91 1575 -91 
Q 1294 -91 989 -36 
Q 684 19 347 128 
L 347 722 
Q 666 556 975 473 
Q 1284 391 1588 391 
Q 1994 391 2212 530 
Q 2431 669 2431 922 
Q 2431 1156 2273 1281 
Q 2116 1406 1581 1522 
L 1381 1569 
Q 847 1681 609 1914 
Q 372 2147 372 2553 
Q 372 3047 722 3315 
Q 1072 3584 1716 3584 
Q 2034 3584 2315 3537 
Q 2597 3491 2834 3397 
z
" transform="scale(0.015625)"/>
       <path id="DejaVuSans-74" d="M 1172 4494 
L 1172 3500 
L 2356 3500 
L 2356 3053 
L 1172 3053 
L 1172 1153 
Q 1172 725 1289 603 
Q 1406 481 1766 481 
L 2356 481 
L 2356 0 
L 1766 0 
Q 1100 0 847 248 
Q 594 497 594 1153 
L 594 3053 
L 172 3053 
L 172 3500 
L 594 3500 
L 594 4494 
L 1172 4494 
z
" transform="scale(0.015625)"/>
       <path id="DejaVuSans-65" d="M 3597 1894 
L 3597 1613 
L 953 1613 
Q 991 1019 1311 708 
Q 1631 397 2203 397 
Q 2534 397 2845 478 
Q 3156 559 3463 722 
L 3463 178 
Q 3153 47 2828 -22 
Q 2503 -91 2169 -91 
Q 1331 -91 842 396 
Q 353 884 353 1716 
Q 353 2575 817 3079 
Q 1281 3584 2069 3584 
Q 2775 3584 3186 3129 
Q 3597 2675 3597 1894 
z
M 3022 2063 
Q 3016 2534 2758 2815 
Q 2500 3097 2075 3097 
Q 1594 3097 1305 2825 
Q 1016 2553 972 2059 
L 3022 2063 
z
" transform="scale(0.015625)"/>
       <path id="DejaVuSans-70" d="M 1159 525 
L 1159 -1331 
L 581 -1331 
L 581 3500 
L 1159 3500 
L 1159 2969 
Q 1341 3281 1617 3432 
Q 1894 3584 2278 3584 
Q 2916 3584 3314 3078 
Q 3713 2572 3713 1747 
Q 3713 922 3314 415 
Q 2916 -91 2278 -91 
Q 1894 -91 1617 61 
Q 1341 213 1159 525 
z
M 3116 1747 
Q 3116 2381 2855 2742 
Q 2594 3103 2138 3103 
Q 1681 3103 1420 2742 
Q 1159 2381 1159 1747 
Q 1159 1113 1420 752 
Q 1681 391 2138 391 
Q 2594 391 2855 752 
Q 3116 1113 3116 1747 
z
" transform="scale(0.015625)"/>
       <path id="DejaVuSans-20" transform="scale(0.015625)"/>
       <path id="DejaVuSans-69" d="M 603 3500 
L 1178 3500 
L 1178 0 
L 603 0 
L 603 3500 
z
M 603 4863 
L 1178 4863 
L 1178 4134 
L 603 4134 
L 603 4863 
z
" transform="scale(0.015625)"/>
       <path id="DejaVuSans-7a" d="M 353 3500 
L 3084 3500 
L 3084 2975 
L 922 459 
L 3084 459 
L 3084 0 
L 275 0 
L 275 525 
L 2438 3041 
L 353 3041 
L 353 3500 
z
" transform="scale(0.015625)"/>
       <path id="DejaVuSans-Oblique-68" d="M 3566 2113 
L 3156 0 
L 2578 0 
L 2988 2091 
Q 3016 2238 3031 2350 
Q 3047 2463 3047 2528 
Q 3047 2791 2881 2937 
Q 2716 3084 2419 3084 
Q 1956 3084 1617 2771 
Q 1278 2459 1178 1941 
L 800 0 
L 225 0 
L 1172 4863 
L 1747 4863 
L 1375 2950 
Q 1594 3244 1934 3414 
Q 2275 3584 2650 3584 
Q 3113 3584 3367 3334 
Q 3622 3084 3622 2631 
Q 3622 2519 3608 2391 
Q 3594 2263 3566 2113 
z
" transform="scale(0.015625)"/>
      </defs>
      <use xlink:href="#DejaVuSans-73" transform="translate(0 0.015625)"/>
      <use xlink:href="#DejaVuSans-74" transform="translate(52.099609 0.015625)"/>
      <use xlink:href="#DejaVuSans-65" transform="translate(91.308594 0.015625)"/>
      <use xlink:href="#DejaVuSans-70" transform="translate(152.832031 0.015625)"/>
      <use xlink:href="#DejaVuSans-20" transform="translate(216.308594 0.015625)"/>
      <use xlink:href="#DejaVuSans-73" transform="translate(248.095703 0.015625)"/>
      <use xlink:href="#DejaVuSans-69" transform="translate(300.195312 0.015625)"/>
      <use xlink:href="#DejaVuSans-7a" transform="translate(327.978516 0.015625)"/>
      <use xlink:href="#DejaVuSans-65" transform="translate(380.46875 0.015625)"/>
      <use xlink:href="#DejaVuSans-20" transform="translate(441.992188 0.015625)"/>
      <use xlink:href="#DejaVuSans-Oblique-68" transform="translate(473.779297 0.015625)"/>
     </g>
    </g>
   </g>
   <g id="matplotlib.axis_2">
    <g id="ytick_1">
     <g id="line2d_15">
      <path d="M 55.778125 216.514231 
L 390.578125 216.514231 
" clip-path="url(#pe0cfdef21a)" style="fill: none; stroke: #b0b0b0; stroke-opacity: 0.3; stroke-width: 0.8; stroke-linecap: square"/>
     </g>
     <g id="line2d_16">
      <defs>
       <path id="mf4d511e9ed" d="M 0 0 
L -3.5 0 
" style="stroke: #000000; stroke-width: 0.8"/>
      </defs>
      <g>
       <use xlink:href="#mf4d511e9ed" x="55.778125" y="216.514231" style="stroke: #000000; stroke-width: 0.8"/>
      </g>
     </g>
     <g id="text_9">
      <!-- $\mathdefault{10^{-11}}$ -->
      <g transform="translate(20.878125 220.31345) scale(0.1 -0.1)">
       <use xlink:href="#DejaVuSans-31" transform="translate(0 0.684375)"/>
       <use xlink:href="#DejaVuSans-30" transform="translate(63.623047 0.684375)"/>
       <use xlink:href="#DejaVuSans-2212" transform="translate(128.203125 38.965625) scale(0.7)"/>
       <use xlink:href="#DejaVuSans-31" transform="translate(186.855469 38.965625) scale(0.7)"/>
       <use xlink:href="#DejaVuSans-31" transform="translate(231.391602 38.965625) scale(0.7)"/>
      </g>
     </g>
    </g>
    <g id="ytick_2">
     <g id="line2d_17">
      <path d="M 55.778125 180.59611 
L 390.578125 180.59611 
" clip-path="url(#pe0cfdef21a)" style="fill: none; stroke: #b0b0b0; stroke-opacity: 0.3; stroke-width: 0.8; stroke-linecap: square"/>
     </g>
     <g id="line2d_18">
      <g>
       <use xlink:href="#mf4d511e9ed" x="55.778125" y="180.59611" style="stroke: #000000; stroke-width: 0.8"/>
      </g>
     </g>
     <g id="text_10">
      <!-- $\mathdefault{10^{-9}}$ -->
      <g transform="translate(25.278125 184.395329) scale(0.1 -0.1)">
       <defs>
        <path id="DejaVuSans-39" d="M 703 97 
L 703 672 
Q 941 559 1184 500 
Q 1428 441 1663 441 
Q 2288 441 2617 861 
Q 2947 1281 2994 2138 
Q 2813 1869 2534 1725 
Q 2256 1581 1919 1581 
Q 1219 1581 811 2004 
Q 403 2428 403 3163 
Q 403 3881 828 4315 
Q 1253 4750 1959 4750 
Q 2769 4750 3195 4129 
Q 3622 3509 3622 2328 
Q 3622 1225 3098 567 
Q 2575 -91 1691 -91 
Q 1453 -91 1209 -44 
Q 966 3 703 97 
z
M 1959 2075 
Q 2384 2075 2632 2365 
Q 2881 2656 2881 3163 
Q 2881 3666 2632 3958 
Q 2384 4250 1959 4250 
Q 1534 4250 1286 3958 
Q 1038 3666 1038 3163 
Q 1038 2656 1286 2365 
Q 1534 2075 1959 2075 
z
" transform="scale(0.015625)"/>
       </defs>
       <use xlink:href="#DejaVuSans-31" transform="translate(0 0.765625)"/>
       <use xlink:href="#DejaVuSans-30" transform="translate(63.623047 0.765625)"/>
       <use xlink:href="#DejaVuSans-2212" transform="translate(128.203125 39.046875) scale(0.7)"/>
       <use xlink:href="#DejaVuSans-39" transform="translate(186.855469 39.046875) scale(0.7)"/>
      </g>
     </g>
    </g>
    <g id="ytick_3">
     <g id="line2d_19">
      <path d="M 55.778125 144.67799 
L 390.578125 144.67799 
" clip-path="url(#pe0cfdef21a)" style="fill: none; stroke: #b0b0b0; stroke-opacity: 0.3; stroke-width: 0.8; stroke-linecap: square"/>
     </g>
     <g id="line2d_20">
      <g>
       <use xlink:href="#mf4d511e9ed" x="55.778125" y="144.67799" style="stroke: #000000; stroke-width: 0.8"/>
      </g>
     </g>
     <g id="text_11">
      <!-- $\mathdefault{10^{-7}}$ -->
      <g transform="translate(25.278125 148.477209) scale(0.1 -0.1)">
       <defs>
        <path id="DejaVuSans-37" d="M 525 4666 
L 3525 4666 
L 3525 4397 
L 1831 0 
L 1172 0 
L 2766 4134 
L 525 4134 
L 525 4666 
z
" transform="scale(0.015625)"/>
       </defs>
       <use xlink:href="#DejaVuSans-31" transform="translate(0 0.684375)"/>
       <use xlink:href="#DejaVuSans-30" transform="translate(63.623047 0.684375)"/>
       <use xlink:href="#DejaVuSans-2212" transform="translate(128.203125 38.965625) scale(0.7)"/>
       <use xlink:href="#DejaVuSans-37" transform="translate(186.855469 38.965625) scale(0.7)"/>
      </g>
     </g>
    </g>
    <g id="ytick_4">
     <g id="line2d_21">
      <path d="M 55.778125 108.75987 
L 390.578125 108.75987 
" clip-path="url(#pe0cfdef21a)" style="fill: none; stroke: #b0b0b0; stroke-opacity: 0.3; stroke-width: 0.8; stroke-linecap: square"/>
     </g>
     <g id="line2d_22">
      <g>
       <use xlink:href="#mf4d511e9ed" x="55.778125" y="108.75987" style="stroke: #000000; stroke-width: 0.8"/>
      </g>
     </g>
     <g id="text_12">
      <!-- $\mathdefault{10^{-5}}$ -->
      <g transform="translate(25.278125 112.559088) scale(0.1 -0.1)">
       <defs>
        <path id="DejaVuSans-35" d="M 691 4666 
L 3169 4666 
L 3169 4134 
L 1269 4134 
L 1269 2991 
Q 1406 3038 1543 3061 
Q 1681 3084 1819 3084 
Q 2600 3084 3056 2656 
Q 3513 2228 3513 1497 
Q 3513 744 3044 326 
Q 2575 -91 1722 -91 
Q 1428 -91 1123 -41 
Q 819 9 494 109 
L 494 744 
Q 775 591 1075 516 
Q 1375 441 1709 441 
Q 2250 441 2565 725 
Q 2881 1009 2881 1497 
Q 2881 1984 2565 2268 
Q 2250 2553 1709 2553 
Q 1456 2553 1204 2497 
Q 953 2441 691 2322 
L 691 4666 
z
" transform="scale(0.015625)"/>
       </defs>
       <use xlink:href="#DejaVuSans-31" transform="translate(0 0.684375)"/>
       <use xlink:href="#DejaVuSans-30" transform="translate(63.623047 0.684375)"/>
       <use xlink:href="#DejaVuSans-2212" transform="translate(128.203125 38.965625) scale(0.7)"/>
       <use xlink:href="#DejaVuSans-35" transform="translate(186.855469 38.965625) scale(0.7)"/>
      </g>
     </g>
    </g>
    <g id="ytick_5">
     <g id="line2d_23">
      <path d="M 55.778125 72.841749 
L 390.578125 72.841749 
" clip-path="url(#pe0cfdef21a)" style="fill: none; stroke: #b0b0b0; stroke-opacity: 0.3; stroke-width: 0.8; stroke-linecap: square"/>
     </g>
     <g id="line2d_24">
      <g>
       <use xlink:href="#mf4d511e9ed" x="55.778125" y="72.841749" style="stroke: #000000; stroke-width: 0.8"/>
      </g>
     </g>
     <g id="text_13">
      <!-- $\mathdefault{10^{-3}}$ -->
      <g transform="translate(25.278125 76.640968) scale(0.1 -0.1)">
       <defs>
        <path id="DejaVuSans-33" d="M 2597 2516 
Q 3050 2419 3304 2112 
Q 3559 1806 3559 1356 
Q 3559 666 3084 287 
Q 2609 -91 1734 -91 
Q 1441 -91 1130 -33 
Q 819 25 488 141 
L 488 750 
Q 750 597 1062 519 
Q 1375 441 1716 441 
Q 2309 441 2620 675 
Q 2931 909 2931 1356 
Q 2931 1769 2642 2001 
Q 2353 2234 1838 2234 
L 1294 2234 
L 1294 2753 
L 1863 2753 
Q 2328 2753 2575 2939 
Q 2822 3125 2822 3475 
Q 2822 3834 2567 4026 
Q 2313 4219 1838 4219 
Q 1578 4219 1281 4162 
Q 984 4106 628 3988 
L 628 4550 
Q 988 4650 1302 4700 
Q 1616 4750 1894 4750 
Q 2613 4750 3031 4423 
Q 3450 4097 3450 3541 
Q 3450 3153 3228 2886 
Q 3006 2619 2597 2516 
z
" transform="scale(0.015625)"/>
       </defs>
       <use xlink:href="#DejaVuSans-31" transform="translate(0 0.765625)"/>
       <use xlink:href="#DejaVuSans-30" transform="translate(63.623047 0.765625)"/>
       <use xlink:href="#DejaVuSans-2212" transform="translate(128.203125 39.046875) scale(0.7)"/>
       <use xlink:href="#DejaVuSans-33" transform="translate(186.855469 39.046875) scale(0.7)"/>
      </g>
     </g>
    </g>
    <g id="ytick_6">
     <g id="line2d_25">
      <path d="M 55.778125 36.923629 
L 390.578125 36.923629 
" clip-path="url(#pe0cfdef21a)" style="fill: none; stroke: #b0b0b0; stroke-opacity: 0.3; stroke-width: 0.8; stroke-linecap: square"/>
     </g>
     <g id="line2d_26">
      <g>
       <use xlink:href="#mf4d511e9ed" x="55.778125" y="36.923629" style="stroke: #000000; stroke-width: 0.8"/>
      </g>
     </g>
     <g id="text_14">
      <!-- $\mathdefault{10^{-1}}$ -->
      <g transform="translate(25.278125 40.722847) scale(0.1 -0.1)">
       <use xlink:href="#DejaVuSans-31" transform="translate(0 0.684375)"/>
       <use xlink:href="#DejaVuSans-30" transform="translate(63.623047 0.684375)"/>
       <use xlink:href="#DejaVuSans-2212" transform="translate(128.203125 38.965625) scale(0.7)"/>
       <use xlink:href="#DejaVuSans-31" transform="translate(186.855469 38.965625) scale(0.7)"/>
      </g>
     </g>
    </g>
    <g id="text_15">
     <!-- absolute error -->
     <g transform="translate(14.798437 168.386406) rotate(-90) scale(0.1 -0.1)">
      <defs>
       <path id="DejaVuSans-61" d="M 2194 1759 
Q 1497 1759 1228 1600 
Q 959 1441 959 1056 
Q 959 750 1161 570 
Q 1363 391 1709 391 
Q 2188 391 2477 730 
Q 2766 1069 2766 1631 
L 2766 1759 
L 2194 1759 
z
M 3341 1997 
L 3341 0 
L 2766 0 
L 2766 531 
Q 2569 213 2275 61 
Q 1981 -91 1556 -91 
Q 1019 -91 701 211 
Q 384 513 384 1019 
Q 384 1609 779 1909 
Q 1175 2209 1959 2209 
L 2766 2209 
L 2766 2266 
Q 2766 2663 2505 2880 
Q 2244 3097 1772 3097 
Q 1472 3097 1187 3025 
Q 903 2953 641 2809 
L 641 3341 
Q 956 3463 1253 3523 
Q 1550 3584 1831 3584 
Q 2591 3584 2966 3190 
Q 3341 2797 3341 1997 
z
" transform="scale(0.015625)"/>
       <path id="DejaVuSans-62" d="M 3116 1747 
Q 3116 2381 2855 2742 
Q 2594 3103 2138 3103 
Q 1681 3103 1420 2742 
Q 1159 2381 1159 1747 
Q 1159 1113 1420 752 
Q 1681 391 2138 391 
Q 2594 391 2855 752 
Q 3116 1113 3116 1747 
z
M 1159 2969 
Q 1341 3281 1617 3432 
Q 1894 3584 2278 3584 
Q 2916 3584 3314 3078 
Q 3713 2572 3713 1747 
Q 3713 922 3314 415 
Q 2916 -91 2278 -91 
Q 1894 -91 1617 61 
Q 1341 213 1159 525 
L 1159 0 
L 581 0 
L 581 4863 
L 1159 4863 
L 1159 2969 
z
" transform="scale(0.015625)"/>
       <path id="DejaVuSans-6f" d="M 1959 3097 
Q 1497 3097 1228 2736 
Q 959 2375 959 1747 
Q 959 1119 1226 758 
Q 1494 397 1959 397 
Q 2419 397 2687 759 
Q 2956 1122 2956 1747 
Q 2956 2369 2687 2733 
Q 2419 3097 1959 3097 
z
M 1959 3584 
Q 2709 3584 3137 3096 
Q 3566 2609 3566 1747 
Q 3566 888 3137 398 
Q 2709 -91 1959 -91 
Q 1206 -91 779 398 
Q 353 888 353 1747 
Q 353 2609 779 3096 
Q 1206 3584 1959 3584 
z
" transform="scale(0.015625)"/>
       <path id="DejaVuSans-6c" d="M 603 4863 
L 1178 4863 
L 1178 0 
L 603 0 
L 603 4863 
z
" transform="scale(0.015625)"/>
       <path id="DejaVuSans-75" d="M 544 1381 
L 544 3500 
L 1119 3500 
L 1119 1403 
Q 1119 906 1312 657 
Q 1506 409 1894 409 
Q 2359 409 2629 706 
Q 2900 1003 2900 1516 
L 2900 3500 
L 3475 3500 
L 3475 0 
L 2900 0 
L 2900 538 
Q 2691 219 2414 64 
Q 2138 -91 1772 -91 
Q 1169 -91 856 284 
Q 544 659 544 1381 
z
M 1991 3584 
L 1991 3584 
z
" transform="scale(0.015625)"/>
       <path id="DejaVuSans-72" d="M 2631 2963 
Q 2534 3019 2420 3045 
Q 2306 3072 2169 3072 
Q 1681 3072 1420 2755 
Q 1159 2438 1159 1844 
L 1159 0 
L 581 0 
L 581 3500 
L 1159 3500 
L 1159 2956 
Q 1341 3275 1631 3429 
Q 1922 3584 2338 3584 
Q 2397 3584 2469 3576 
Q 2541 3569 2628 3553 
L 2631 2963 
z
" transform="scale(0.015625)"/>
      </defs>
      <use xlink:href="#DejaVuSans-61"/>
      <use xlink:href="#DejaVuSans-62" transform="translate(61.279297 0)"/>
      <use xlink:href="#DejaVuSans-73" transform="translate(124.755859 0)"/>
      <use xlink:href="#DejaVuSans-6f" transform="translate(176.855469 0)"/>
      <use xlink:href="#DejaVuSans-6c" transform="translate(238.037109 0)"/>
      <use xlink:href="#DejaVuSans-75" transform="translate(265.820312 0)"/>
      <use xlink:href="#DejaVuSans-74" transform="translate(329.199219 0)"/>
      <use xlink:href="#DejaVuSans-65" transform="translate(368.408203 0)"/>
      <use xlink:href="#DejaVuSans-20" transform="translate(429.931641 0)"/>
      <use xlink:href="#DejaVuSans-65" transform="translate(461.71875 0)"/>
      <use xlink:href="#DejaVuSans-72" transform="translate(523.242188 0)"/>
      <use xlink:href="#DejaVuSans-72" transform="translate(562.605469 0)"/>
      <use xlink:href="#DejaVuSans-6f" transform="translate(601.46875 0)"/>
      <use xlink:href="#DejaVuSans-72" transform="translate(662.650391 0)"/>
     </g>
    </g>
   </g>
   <g id="line2d_27">
    <path d="M 70.996307 50.281909 
L 90.879358 66.82148 
L 184.176755 143.90106 
L 194.883013 152.624445 
L 196.412479 154.027029 
L 199.47141 156.345697 
L 201.000875 157.917014 
L 202.530341 158.228057 
L 204.059806 159.74168 
L 205.589272 160.048597 
L 207.118737 163.366196 
L 208.648203 161.227739 
L 210.177668 164.056814 
L 211.707134 167.760743 
L 213.236599 163.337348 
L 214.766065 166.772068 
L 216.29553 164.264466 
L 217.824996 170.064842 
L 219.354461 169.342551 
L 220.883927 157.595209 
L 222.413392 172.313961 
L 223.942858 155.372477 
L 225.472323 155.68324 
L 227.001789 172.599497 
L 228.531254 153.267131 
L 230.06072 153.553211 
L 231.590185 157.233543 
L 233.119651 154.463629 
L 234.649116 151.018975 
L 236.178582 150.900273 
L 237.708047 159.563973 
L 239.237513 150.774582 
L 240.766978 159.554156 
L 242.296444 145.36754 
L 243.825909 145.075123 
L 245.355375 147.858284 
L 246.88484 148.430552 
L 248.414306 140.816858 
L 249.943771 135.539266 
L 251.473237 147.597917 
L 253.002702 145.063776 
L 254.532168 132.556985 
L 256.061633 141.640047 
L 257.591099 144.749401 
L 259.120564 130.109033 
L 260.65003 126.269743 
L 262.179495 132.697233 
L 263.708961 124.711701 
L 265.238427 147.712468 
L 266.767892 126.148762 
L 268.297358 136.911777 
L 269.826823 133.241959 
L 271.356289 134.085016 
L 272.885754 120.503169 
L 274.41522 119.344753 
L 275.944685 113.246696 
L 277.474151 116.904665 
L 279.003616 122.818243 
L 280.533082 111.107322 
L 282.062547 122.520552 
L 283.592013 112.5183 
L 285.121478 109.560321 
L 286.650944 108.096239 
L 288.180409 111.166805 
L 289.709875 123.880894 
L 291.23934 108.112403 
L 292.768806 102.41641 
L 294.298271 98.374579 
L 295.827737 105.893614 
L 297.357202 115.847551 
L 298.886668 100.014399 
L 300.416133 109.622907 
L 301.945599 97.957122 
L 303.475064 94.099678 
L 305.00453 93.451376 
L 306.533995 89.818741 
L 308.063461 87.705081 
L 309.592926 96.768353 
L 311.122392 88.168522 
L 312.651857 95.425811 
L 314.181323 88.141307 
L 315.710788 95.648051 
L 317.240254 81.051966 
L 318.769719 121.423906 
L 320.299185 80.462467 
L 321.82865 80.29509 
L 323.358116 95.485082 
L 324.887581 73.234546 
L 326.417047 88.172538 
L 327.946512 78.288003 
L 329.475978 70.141495 
L 331.005443 73.347655 
L 332.534909 83.028701 
L 334.064374 70.713377 
L 335.59384 70.992394 
L 338.652771 60.616704 
L 340.182236 67.397961 
L 341.711702 70.679239 
L 343.241167 77.165769 
L 344.770633 62.682509 
L 346.300099 58.399764 
L 347.829564 103.194532 
L 349.35903 65.645354 
L 350.888495 59.653709 
L 352.417961 52.345382 
L 353.947426 63.972504 
L 355.476892 49.355722 
L 357.006357 48.906599 
L 358.535823 44.480906 
L 360.065288 44.562429 
L 361.594754 52.310865 
L 363.124219 49.633921 
L 364.653685 60.404857 
L 366.18315 42.886819 
L 367.712616 38.593309 
L 369.242081 53.073108 
L 370.771547 36.184358 
L 372.301012 37.452006 
L 373.830478 43.011337 
L 375.359943 32.398125 
L 375.359943 32.398125 
" clip-path="url(#pe0cfdef21a)" style="fill: none; stroke: #1f77b4; stroke-width: 1.5; stroke-linecap: square"/>
   </g>
   <g id="line2d_28">
    <path d="M 70.996307 82.345394 
L 144.410651 203.502336 
L 145.940117 205.601523 
L 147.469582 208.491136 
L 148.999048 211.898262 
L 150.528513 211.612077 
L 152.057979 219.869842 
L 153.587444 218.326804 
L 155.11691 224.763739 
L 156.646375 224.160996 
L 158.175841 225.606642 
L 159.705306 222.103024 
L 161.234772 222.527067 
L 162.764237 233.998125 
L 164.293703 210.995225 
L 165.823168 215.02327 
L 167.352634 212.239024 
L 168.882099 231.318827 
L 170.411565 206.629905 
L 171.94103 216.518474 
L 173.470496 211.997495 
L 174.999961 210.126654 
L 176.529427 204.879102 
L 178.058892 206.926491 
L 179.588358 202.236159 
L 181.117823 205.332367 
L 182.647289 206.647725 
L 184.176755 207.177465 
L 185.70622 201.970539 
L 187.235686 225.122727 
L 188.765151 212.346117 
L 190.294617 195.919414 
L 191.824082 192.327189 
L 193.353548 198.014329 
L 194.883013 202.698135 
L 196.412479 186.241034 
L 197.941944 200.187318 
L 199.47141 196.29747 
L 201.000875 182.690204 
L 202.530341 195.401892 
L 204.059806 194.848177 
L 205.589272 195.4327 
L 207.118737 180.408882 
L 208.648203 201.680544 
L 210.177668 201.412153 
L 211.707134 177.947876 
L 213.236599 178.005875 
L 214.766065 171.464263 
L 216.29553 173.15881 
L 217.824996 173.641239 
L 219.354461 171.591789 
L 220.883927 176.584319 
L 222.413392 165.041956 
L 223.942858 160.388175 
L 225.472323 162.456934 
L 227.001789 157.455117 
L 228.531254 160.196725 
L 230.06072 163.42899 
L 231.590185 165.34353 
L 233.119651 171.279195 
L 234.649116 165.488936 
L 236.178582 180.303853 
L 237.708047 152.453367 
L 239.237513 159.441635 
L 240.766978 149.106599 
L 242.296444 164.947205 
L 243.825909 170.070038 
L 245.355375 150.120582 
L 246.88484 146.929996 
L 248.414306 171.321592 
L 249.943771 142.412603 
L 251.473237 147.597917 
L 253.002702 140.715465 
L 254.532168 140.737885 
L 256.061633 141.640047 
L 257.591099 144.749401 
L 259.120564 141.629451 
L 260.65003 132.57868 
L 262.179495 138.311432 
L 263.708961 132.424506 
L 265.238427 147.712468 
L 266.767892 150.516768 
L 268.297358 126.338551 
L 269.826823 125.837884 
L 271.356289 123.890853 
L 272.885754 147.273484 
L 274.41522 150.178093 
L 275.944685 119.097339 
L 277.474151 154.356986 
L 279.003616 119.712445 
L 280.533082 119.342312 
L 282.062547 122.520552 
L 283.592013 132.179403 
L 285.121478 125.438077 
L 286.650944 122.75558 
L 288.180409 116.940148 
L 289.709875 123.880894 
L 291.23934 115.650486 
L 292.768806 114.296513 
L 294.298271 104.561672 
L 295.827737 108.8039 
L 297.357202 101.725585 
L 298.886668 118.080296 
L 300.416133 109.622907 
L 301.945599 111.924663 
L 303.475064 108.233345 
L 305.00453 111.839664 
L 306.533995 98.423023 
L 308.063461 94.835699 
L 309.592926 95.015401 
L 311.122392 104.650752 
L 312.651857 95.425811 
L 314.181323 100.265351 
L 315.710788 95.648051 
L 317.240254 89.814449 
L 318.769719 121.423906 
L 320.299185 96.088816 
L 321.82865 122.748528 
L 323.358116 95.485082 
L 324.887581 79.580712 
L 326.417047 78.526648 
L 327.946512 84.151694 
L 329.475978 77.462377 
L 331.005443 93.057938 
L 332.534909 83.028701 
L 334.064374 92.01743 
L 335.59384 80.433908 
L 337.123305 78.16383 
L 338.652771 65.635188 
L 340.182236 76.019981 
L 341.711702 68.146054 
L 343.241167 63.957052 
L 344.770633 75.962918 
L 346.300099 71.0595 
L 347.829564 58.823797 
L 349.35903 65.645354 
L 350.888495 64.566555 
L 352.417961 61.895362 
L 353.947426 56.264409 
L 357.006357 59.372156 
L 358.535823 49.769961 
L 360.065288 51.424002 
L 361.594754 53.505609 
L 363.124219 54.296687 
L 364.653685 60.404857 
L 366.18315 61.02608 
L 367.712616 45.973865 
L 369.242081 53.073108 
L 370.771547 43.754519 
L 372.301012 52.745988 
L 373.830478 42.550996 
L 375.359943 39.975049 
L 375.359943 39.975049 
" clip-path="url(#pe0cfdef21a)" style="fill: none; stroke: #ff7f0e; stroke-width: 1.5; stroke-linecap: square"/>
   </g>
   <g id="patch_3">
    <path d="M 55.778125 244.078125 
L 55.778125 22.318125 
" style="fill: none; stroke: #000000; stroke-width: 0.8; stroke-linejoin: miter; stroke-linecap: square"/>
   </g>
   <g id="patch_4">
    <path d="M 390.578125 244.078125 
L 390.578125 22.318125 
" style="fill: none; stroke: #000000; stroke-width: 0.8; stroke-linejoin: miter; stroke-linecap: square"/>
   </g>
   <g id="patch_5">
    <path d="M 55.778125 244.078125 
L 390.578125 244.078125 
" style="fill: none; stroke: #000000; stroke-width: 0.8; stroke-linejoin: miter; stroke-linecap: square"/>
   </g>
   <g id="patch_6">
    <path d="M 55.778125 22.318125 
L 390.578125 22.318125 
" style="fill: none; stroke: #000000; stroke-width: 0.8; stroke-linejoin: miter; stroke-linecap: square"/>
   </g>
   <g id="text_16">
    <!-- Finite-difference error: truncation vs. cancellation -->
    <g transform="translate(74.7925 16.318125) scale(0.12 -0.12)">
     <defs>
      <path id="DejaVuSans-46" d="M 628 4666 
L 3309 4666 
L 3309 4134 
L 1259 4134 
L 1259 2759 
L 3109 2759 
L 3109 2228 
L 1259 2228 
L 1259 0 
L 628 0 
L 628 4666 
z
" transform="scale(0.015625)"/>
      <path id="DejaVuSans-6e" d="M 3513 2113 
L 3513 0 
L 2938 0 
L 2938 2094 
Q 2938 2591 2744 2837 
Q 2550 3084 2163 3084 
Q 1697 3084 1428 2787 
Q 1159 2491 1159 1978 
L 1159 0 
L 581 0 
L 581 3500 
L 1159 3500 
L 1159 2956 
Q 1366 3272 1645 3428 
Q 1925 3584 2291 3584 
Q 2894 3584 3203 3211 
Q 3513 2838 3513 2113 
z
" transform="scale(0.015625)"/>
      <path id="DejaVuSans-2d" d="M 313 2009 
L 1997 2009 
L 1997 1497 
L 313 1497 
L 313 2009 
z
" transform="scale(0.015625)"/>
      <path id="DejaVuSans-64" d="M 2906 2969 
L 2906 4863 
L 3481 4863 
L 3481 0 
L 2906 0 
L 2906 525 
Q 2725 213 2448 61 
Q 2172 -91 1784 -91 
Q 1150 -91 751 415 
Q 353 922 353 1747 
Q 353 2572 751 3078 
Q 1150 3584 1784 3584 
Q 2172 3584 2448 3432 
Q 2725 3281 2906 2969 
z
M 947 1747 
Q 947 1113 1208 752 
Q 1469 391 1925 391 
Q 2381 391 2643 752 
Q 2906 1113 2906 1747 
Q 2906 2381 2643 2742 
Q 2381 3103 1925 3103 
Q 1469 3103 1208 2742 
Q 947 2381 947 1747 
z
" transform="scale(0.015625)"/>
      <path id="DejaVuSans-66" d="M 2375 4863 
L 2375 4384 
L 1825 4384 
Q 1516 4384 1395 4259 
Q 1275 4134 1275 3809 
L 1275 3500 
L 2222 3500 
L 2222 3053 
L 1275 3053 
L 1275 0 
L 697 0 
L 697 3053 
L 147 3053 
L 147 3500 
L 697 3500 
L 697 3744 
Q 697 4328 969 4595 
Q 1241 4863 1831 4863 
L 2375 4863 
z
" transform="scale(0.015625)"/>
      <path id="DejaVuSans-63" d="M 3122 3366 
L 3122 2828 
Q 2878 2963 2633 3030 
Q 2388 3097 2138 3097 
Q 1578 3097 1268 2742 
Q 959 2388 959 1747 
Q 959 1106 1268 751 
Q 1578 397 2138 397 
Q 2388 397 2633 464 
Q 2878 531 3122 666 
L 3122 134 
Q 2881 22 2623 -34 
Q 2366 -91 2075 -91 
Q 1284 -91 818 406 
Q 353 903 353 1747 
Q 353 2603 823 3093 
Q 1294 3584 2113 3584 
Q 2378 3584 2631 3529 
Q 2884 3475 3122 3366 
z
" transform="scale(0.015625)"/>
      <path id="DejaVuSans-3a" d="M 750 794 
L 1409 794 
L 1409 0 
L 750 0 
L 750 794 
z
M 750 3309 
L 1409 3309 
L 1409 2516 
L 750 2516 
L 750 3309 
z
" transform="scale(0.015625)"/>
      <path id="DejaVuSans-76" d="M 191 3500 
L 800 3500 
L 1894 563 
L 2988 3500 
L 3597 3500 
L 2284 0 
L 1503 0 
L 191 3500 
z
" transform="scale(0.015625)"/>
      <path id="DejaVuSans-2e" d="M 684 794 
L 1344 794 
L 1344 0 
L 684 0 
L 684 794 
z
" transform="scale(0.015625)"/>
     </defs>
     <use xlink:href="#DejaVuSans-46"/>
     <use xlink:href="#DejaVuSans-69" transform="translate(50.269531 0)"/>
     <use xlink:href="#DejaVuSans-6e" transform="translate(78.052734 0)"/>
     <use xlink:href="#DejaVuSans-69" transform="translate(141.431641 0)"/>
     <use xlink:href="#DejaVuSans-74" transform="translate(169.214844 0)"/>
     <use xlink:href="#DejaVuSans-65" transform="translate(208.423828 0)"/>
     <use xlink:href="#DejaVuSans-2d" transform="translate(269.947266 0)"/>
     <use xlink:href="#DejaVuSans-64" transform="translate(306.03125 0)"/>
     <use xlink:href="#DejaVuSans-69" transform="translate(369.507812 0)"/>
     <use xlink:href="#DejaVuSans-66" transform="translate(397.291016 0)"/>
     <use xlink:href="#DejaVuSans-66" transform="translate(432.496094 0)"/>
     <use xlink:href="#DejaVuSans-65" transform="translate(467.701172 0)"/>
     <use xlink:href="#DejaVuSans-72" transform="translate(529.224609 0)"/>
     <use xlink:href="#DejaVuSans-65" transform="translate(568.087891 0)"/>
     <use xlink:href="#DejaVuSans-6e" transform="translate(629.611328 0)"/>
     <use xlink:href="#DejaVuSans-63" transform="translate(692.990234 0)"/>
     <use xlink:href="#DejaVuSans-65" transform="translate(747.970703 0)"/>
     <use xlink:href="#DejaVuSans-20" transform="translate(809.494141 0)"/>
     <use xlink:href="#DejaVuSans-65" transform="translate(841.28125 0)"/>
     <use xlink:href="#DejaVuSans-72" transform="translate(902.804688 0)"/>
     <use xlink:href="#DejaVuSans-72" transform="translate(942.167969 0)"/>
     <use xlink:href="#DejaVuSans-6f" transform="translate(981.03125 0)"/>
     <use xlink:href="#DejaVuSans-72" transform="translate(1042.212891 0)"/>
     <use xlink:href="#DejaVuSans-3a" transform="translate(1081.576172 0)"/>
     <use xlink:href="#DejaVuSans-20" transform="translate(1115.267578 0)"/>
     <use xlink:href="#DejaVuSans-74" transform="translate(1147.054688 0)"/>
     <use xlink:href="#DejaVuSans-72" transform="translate(1186.263672 0)"/>
     <use xlink:href="#DejaVuSans-75" transform="translate(1227.376953 0)"/>
     <use xlink:href="#DejaVuSans-6e" transform="translate(1290.755859 0)"/>
     <use xlink:href="#DejaVuSans-63" transform="translate(1354.134766 0)"/>
     <use xlink:href="#DejaVuSans-61" transform="translate(1409.115234 0)"/>
     <use xlink:href="#DejaVuSans-74" transform="translate(1470.394531 0)"/>
     <use xlink:href="#DejaVuSans-69" transform="translate(1509.603516 0)"/>
     <use xlink:href="#DejaVuSans-6f" transform="translate(1537.386719 0)"/>
     <use xlink:href="#DejaVuSans-6e" transform="translate(1598.568359 0)"/>
     <use xlink:href="#DejaVuSans-20" transform="translate(1661.947266 0)"/>
     <use xlink:href="#DejaVuSans-76" transform="translate(1693.734375 0)"/>
     <use xlink:href="#DejaVuSans-73" transform="translate(1752.914062 0)"/>
     <use xlink:href="#DejaVuSans-2e" transform="translate(1805.013672 0)"/>
     <use xlink:href="#DejaVuSans-20" transform="translate(1836.800781 0)"/>
     <use xlink:href="#DejaVuSans-63" transform="translate(1868.587891 0)"/>
     <use xlink:href="#DejaVuSans-61" transform="translate(1923.568359 0)"/>
     <use xlink:href="#DejaVuSans-6e" transform="translate(1984.847656 0)"/>
     <use xlink:href="#DejaVuSans-63" transform="translate(2048.226562 0)"/>
     <use xlink:href="#DejaVuSans-65" transform="translate(2103.207031 0)"/>
     <use xlink:href="#DejaVuSans-6c" transform="translate(2164.730469 0)"/>
     <use xlink:href="#DejaVuSans-6c" transform="translate(2192.513672 0)"/>
     <use xlink:href="#DejaVuSans-61" transform="translate(2220.296875 0)"/>
     <use xlink:href="#DejaVuSans-74" transform="translate(2281.576172 0)"/>
     <use xlink:href="#DejaVuSans-69" transform="translate(2320.785156 0)"/>
     <use xlink:href="#DejaVuSans-6f" transform="translate(2348.568359 0)"/>
     <use xlink:href="#DejaVuSans-6e" transform="translate(2409.75 0)"/>
    </g>
   </g>
   <g id="legend_1">
    <g id="patch_7">
     <path d="M 249.578125 239.078125 
L 383.578125 239.078125 
Q 385.578125 239.078125 385.578125 237.078125 
L 385.578125 205.978125 
Q 385.578125 203.978125 383.578125 203.978125 
L 249.578125 203.978125 
Q 247.578125 203.978125 247.578125 205.978125 
L 247.578125 237.078125 
Q 247.578125 239.078125 249.578125 239.078125 
z
" style="fill: #ffffff; opacity: 0.8; stroke: #cccccc; stroke-linejoin: miter"/>
    </g>
    <g id="line2d_29">
     <path d="M 251.578125 213.278125 
L 261.578125 213.278125 
L 271.578125 213.278125 
" style="fill: none; stroke: #1f77b4; stroke-width: 1.5; stroke-linecap: square"/>
    </g>
    <g id="text_17">
     <!-- forward (opt $h\sim$$\sqrt{\varepsilon}$) -->
     <g transform="translate(279.578125 216.778125) scale(0.1 -0.1)">
      <defs>
       <path id="DejaVuSans-77" d="M 269 3500 
L 844 3500 
L 1563 769 
L 2278 3500 
L 2956 3500 
L 3675 769 
L 4391 3500 
L 4966 3500 
L 4050 0 
L 3372 0 
L 2619 2869 
L 1863 0 
L 1184 0 
L 269 3500 
z
" transform="scale(0.015625)"/>
       <path id="DejaVuSans-28" d="M 1984 4856 
Q 1566 4138 1362 3434 
Q 1159 2731 1159 2009 
Q 1159 1288 1364 580 
Q 1569 -128 1984 -844 
L 1484 -844 
Q 1016 -109 783 600 
Q 550 1309 550 2009 
Q 550 2706 781 3412 
Q 1013 4119 1484 4856 
L 1984 4856 
z
" transform="scale(0.015625)"/>
       <path id="DejaVuSans-223c" d="M 4684 2556 
L 4684 1997 
Q 4356 1753 4076 1645 
Q 3797 1538 3494 1538 
Q 3150 1538 2694 1722 
Q 2663 1734 2641 1744 
Q 2622 1750 2575 1769 
Q 2091 1959 1797 1959 
Q 1522 1959 1253 1840 
Q 984 1722 678 1459 
L 678 2019 
Q 1006 2263 1286 2370 
Q 1566 2478 1869 2478 
Q 2213 2478 2672 2294 
Q 2706 2278 2722 2272 
Q 2741 2266 2788 2247 
Q 3272 2056 3566 2056 
Q 3834 2056 4098 2173 
Q 4363 2291 4684 2556 
z
" transform="scale(0.015625)"/>
       <path id="DejaVuSans-221a" d="M 3488 5191 
L 4078 5191 
L 4078 4891 
L 3719 4891 
L 1863 -128 
L 1656 -128 
L 659 2631 
L 269 2491 
L 191 2741 
L 1075 3047 
L 1875 831 
L 3488 5191 
z
" transform="scale(0.015625)"/>
       <path id="DejaVuSans-Oblique-3b5" d="M 1263 1888 
Q 925 1963 778 2166 
Q 669 2309 669 2503 
Q 669 3034 1175 3344 
Q 1575 3588 2188 3588 
Q 2425 3588 2684 3550 
Q 2944 3513 3234 3438 
L 3134 2916 
Q 2847 3006 2606 3047 
Q 2359 3088 2138 3088 
Q 1766 3088 1522 2944 
Q 1228 2772 1228 2522 
Q 1228 2356 1381 2241 
Q 1563 2103 1925 2103 
L 2409 2103 
L 2319 1628 
L 1856 1628 
Q 1425 1628 1172 1469 
Q 828 1253 828 916 
Q 828 703 1013 563 
Q 1244 388 1716 388 
Q 2006 388 2284 444 
Q 2563 503 2806 619 
L 2700 84 
Q 2403 -3 2131 -47 
Q 1859 -91 1609 -91 
Q 866 -91 516 194 
Q 250 413 250 781 
Q 250 1278 600 1584 
Q 859 1813 1263 1888 
z
" transform="scale(0.015625)"/>
       <path id="DejaVuSans-29" d="M 513 4856 
L 1013 4856 
Q 1481 4119 1714 3412 
Q 1947 2706 1947 2009 
Q 1947 1309 1714 600 
Q 1481 -109 1013 -844 
L 513 -844 
Q 928 -128 1133 580 
Q 1338 1288 1338 2009 
Q 1338 2731 1133 3434 
Q 928 4138 513 4856 
z
" transform="scale(0.015625)"/>
      </defs>
      <use xlink:href="#DejaVuSans-66" transform="translate(0 0.890625)"/>
      <use xlink:href="#DejaVuSans-6f" transform="translate(35.205078 0.890625)"/>
      <use xlink:href="#DejaVuSans-72" transform="translate(96.386719 0.890625)"/>
      <use xlink:href="#DejaVuSans-77" transform="translate(137.5 0.890625)"/>
      <use xlink:href="#DejaVuSans-61" transform="translate(219.287109 0.890625)"/>
      <use xlink:href="#DejaVuSans-72" transform="translate(280.566406 0.890625)"/>
      <use xlink:href="#DejaVuSans-64" transform="translate(321.679688 0.890625)"/>
      <use xlink:href="#DejaVuSans-20" transform="translate(385.15625 0.890625)"/>
      <use xlink:href="#DejaVuSans-28" transform="translate(416.943359 0.890625)"/>
      <use xlink:href="#DejaVuSans-6f" transform="translate(455.957031 0.890625)"/>
      <use xlink:href="#DejaVuSans-70" transform="translate(517.138672 0.890625)"/>
      <use xlink:href="#DejaVuSans-74" transform="translate(580.615234 0.890625)"/>
      <use xlink:href="#DejaVuSans-20" transform="translate(619.824219 0.890625)"/>
      <use xlink:href="#DejaVuSans-Oblique-68" transform="translate(651.611328 0.890625)"/>
      <use xlink:href="#DejaVuSans-223c" transform="translate(734.472656 0.890625)"/>
      <use xlink:href="#DejaVuSans-221a" transform="translate(837.744141 0.890625)"/>
      <use xlink:href="#DejaVuSans-Oblique-3b5" transform="translate(913.964844 0.6875)"/>
      <use xlink:href="#DejaVuSans-29" transform="translate(980.517578 0.890625)"/>
      <path d="M 901.464844 75.5 
L 901.464844 81.75 
L 980.517578 81.75 
L 980.517578 75.5 
L 901.464844 75.5 
z
"/>
     </g>
    </g>
    <g id="line2d_30">
     <path d="M 251.578125 229.478125 
L 261.578125 229.478125 
L 271.578125 229.478125 
" style="fill: none; stroke: #ff7f0e; stroke-width: 1.5; stroke-linecap: square"/>
    </g>
    <g id="text_18">
     <!-- central (opt $h\sim$$\varepsilon^{1/3}$) -->
     <g transform="translate(279.578125 232.978125) scale(0.1 -0.1)">
      <defs>
       <path id="DejaVuSans-2f" d="M 1625 4666 
L 2156 4666 
L 531 -594 
L 0 -594 
L 1625 4666 
z
" transform="scale(0.015625)"/>
      </defs>
      <use xlink:href="#DejaVuSans-63" transform="translate(0 0.765625)"/>
      <use xlink:href="#DejaVuSans-65" transform="translate(54.980469 0.765625)"/>
      <use xlink:href="#DejaVuSans-6e" transform="translate(116.503906 0.765625)"/>
      <use xlink:href="#DejaVuSans-74" transform="translate(179.882812 0.765625)"/>
      <use xlink:href="#DejaVuSans-72" transform="translate(219.091797 0.765625)"/>
      <use xlink:href="#DejaVuSans-61" transform="translate(260.205078 0.765625)"/>
      <use xlink:href="#DejaVuSans-6c" transform="translate(321.484375 0.765625)"/>
      <use xlink:href="#DejaVuSans-20" transform="translate(349.267578 0.765625)"/>
      <use xlink:href="#DejaVuSans-28" transform="translate(381.054688 0.765625)"/>
      <use xlink:href="#DejaVuSans-6f" transform="translate(420.068359 0.765625)"/>
      <use xlink:href="#DejaVuSans-70" transform="translate(481.25 0.765625)"/>
      <use xlink:href="#DejaVuSans-74" transform="translate(544.726562 0.765625)"/>
      <use xlink:href="#DejaVuSans-20" transform="translate(583.935547 0.765625)"/>
      <use xlink:href="#DejaVuSans-Oblique-68" transform="translate(615.722656 0.765625)"/>
      <use xlink:href="#DejaVuSans-223c" transform="translate(698.583984 0.765625)"/>
      <use xlink:href="#DejaVuSans-Oblique-3b5" transform="translate(801.855469 0.765625)"/>
      <use xlink:href="#DejaVuSans-31" transform="translate(860.566849 39.046875) scale(0.7)"/>
      <use xlink:href="#DejaVuSans-2f" transform="translate(905.102982 39.046875) scale(0.7)"/>
      <use xlink:href="#DejaVuSans-33" transform="translate(928.686966 39.046875) scale(0.7)"/>
      <use xlink:href="#DejaVuSans-29" transform="translate(975.957474 0.765625)"/>
     </g>
    </g>
   </g>
  </g>
 </g>
 <defs>
  <clipPath id="pe0cfdef21a">
   <rect x="55.778125" y="22.318125" width="334.8" height="221.76"/>
  </clipPath>
 </defs>
</svg>
