<?xml version="1.0" encoding="utf-8" standalone="no"?>
<!DOCTYPE svg PUBLIC "-//W3C//DTD SVG 1.1//EN"
  "http://www.w3.org/Graphics/SVG/1.1/DTD/svg11.dtd">
<svg xmlns:xlink="http://www.w3.org/1999/xlink" width="560.778125pt" height="259.458375pt" viewBox="0 0 560.778125 259.458375" xmlns="http://www.w3.org/2000/svg" version="1.1">
 <metadata>
  <rdf:RDF xmlns:dc="http://purl.org/dc/elements/1.1/" xmlns:cc="http://creativecommons.org/ns#" xmlns:rdf="http://www.w3.org/1999/02/22-rdf-syntax-ns#">
   <cc:Work>
    <dc:type rdf:resource="http://purl.org/dc/dcmitype/StillImage"/>
    <dc:date>2026-06-03T13:27:50.042463</dc:date>
    <dc:format>image/svg+xml</dc:format>
    <dc:creator>
     <cc:Agent>
      <dc:title>Matplotlib v3.10.9, https://matplotlib.org/</dc:title>
     </cc:Agent>
    </dc:creator>
   </cc:Work>
  </rdf:RDF>
 </metadata>
 <defs>
  <style type="text/css">*{stroke-linejoin: round; stroke-linecap: butt}</style>
 </defs>
 <g id="figure_1">
  <g id="patch_1">
   <path d="M 0 259.458375 
L 560.778125 259.458375 
L 560.778125 0 
L 0 0 
z
" style="fill: #ffffff"/>
  </g>
  <g id="axes_1">
   <g id="patch_2">
    <path d="M 51.378125 221.902125 
L 279.650852 221.902125 
L 279.650852 22.318125 
L 51.378125 22.318125 
z
" style="fill: #ffffff"/>
   </g>
   <g id="matplotlib.axis_1">
    <g id="xtick_1">
     <g id="line2d_1">
      <path d="M 61.754158 221.902125 
L 61.754158 22.318125 
" clip-path="url(#p6b99f52032)" style="fill: none; stroke: #b0b0b0; stroke-opacity: 0.3; stroke-width: 0.8; stroke-linecap: square"/>
     </g>
     <g id="line2d_2">
      <defs>
       <path id="m9175fa9e71" d="M 0 0 
L 0 3.5 
" style="stroke: #000000; stroke-width: 0.8"/>
      </defs>
      <g>
       <use xlink:href="#m9175fa9e71" x="61.754158" y="221.902125" style="stroke: #000000; stroke-width: 0.8"/>
      </g>
     </g>
     <g id="text_1">
      <!-- 0 -->
      <g transform="translate(58.572908 236.500563) scale(0.1 -0.1)">
       <defs>
        <path id="DejaVuSans-30" d="M 2034 4250 
Q 1547 4250 1301 3770 
Q 1056 3291 1056 2328 
Q 1056 1369 1301 889 
Q 1547 409 2034 409 
Q 2525 409 2770 889 
Q 3016 1369 3016 2328 
Q 3016 3291 2770 3770 
Q 2525 4250 2034 4250 
z
M 2034 4750 
Q 2819 4750 3233 4129 
Q 3647 3509 3647 2328 
Q 3647 1150 3233 529 
Q 2819 -91 2034 -91 
Q 1250 -91 836 529 
Q 422 1150 422 2328 
Q 422 3509 836 4129 
Q 1250 4750 2034 4750 
z
" transform="scale(0.015625)"/>
       </defs>
       <use xlink:href="#DejaVuSans-30"/>
      </g>
     </g>
    </g>
    <g id="xtick_2">
     <g id="line2d_3">
      <path d="M 96.690296 221.902125 
L 96.690296 22.318125 
" clip-path="url(#p6b99f52032)" style="fill: none; stroke: #b0b0b0; stroke-opacity: 0.3; stroke-width: 0.8; stroke-linecap: square"/>
     </g>
     <g id="line2d_4">
      <g>
       <use xlink:href="#m9175fa9e71" x="96.690296" y="221.902125" style="stroke: #000000; stroke-width: 0.8"/>
      </g>
     </g>
     <g id="text_2">
      <!-- 250 -->
      <g transform="translate(87.146546 236.500563) scale(0.1 -0.1)">
       <defs>
        <path id="DejaVuSans-32" d="M 1228 531 
L 3431 531 
L 3431 0 
L 469 0 
L 469 531 
Q 828 903 1448 1529 
Q 2069 2156 2228 2338 
Q 2531 2678 2651 2914 
Q 2772 3150 2772 3378 
Q 2772 3750 2511 3984 
Q 2250 4219 1831 4219 
Q 1534 4219 1204 4116 
Q 875 4013 500 3803 
L 500 4441 
Q 881 4594 1212 4672 
Q 1544 4750 1819 4750 
Q 2544 4750 2975 4387 
Q 3406 4025 3406 3419 
Q 3406 3131 3298 2873 
Q 3191 2616 2906 2266 
Q 2828 2175 2409 1742 
Q 1991 1309 1228 531 
z
" transform="scale(0.015625)"/>
        <path id="DejaVuSans-35" d="M 691 4666 
L 3169 4666 
L 3169 4134 
L 1269 4134 
L 1269 2991 
Q 1406 3038 1543 3061 
Q 1681 3084 1819 3084 
Q 2600 3084 3056 2656 
Q 3513 2228 3513 1497 
Q 3513 744 3044 326 
Q 2575 -91 1722 -91 
Q 1428 -91 1123 -41 
Q 819 9 494 109 
L 494 744 
Q 775 591 1075 516 
Q 1375 441 1709 441 
Q 2250 441 2565 725 
Q 2881 1009 2881 1497 
Q 2881 1984 2565 2268 
Q 2250 2553 1709 2553 
Q 1456 2553 1204 2497 
Q 953 2441 691 2322 
L 691 4666 
z
" transform="scale(0.015625)"/>
       </defs>
       <use xlink:href="#DejaVuSans-32"/>
       <use xlink:href="#DejaVuSans-35" transform="translate(63.623047 0)"/>
       <use xlink:href="#DejaVuSans-30" transform="translate(127.246094 0)"/>
      </g>
     </g>
    </g>
    <g id="xtick_3">
     <g id="line2d_5">
      <path d="M 131.626435 221.902125 
L 131.626435 22.318125 
" clip-path="url(#p6b99f52032)" style="fill: none; stroke: #b0b0b0; stroke-opacity: 0.3; stroke-width: 0.8; stroke-linecap: square"/>
     </g>
     <g id="line2d_6">
      <g>
       <use xlink:href="#m9175fa9e71" x="131.626435" y="221.902125" style="stroke: #000000; stroke-width: 0.8"/>
      </g>
     </g>
     <g id="text_3">
      <!-- 500 -->
      <g transform="translate(122.082685 236.500563) scale(0.1 -0.1)">
       <use xlink:href="#DejaVuSans-35"/>
       <use xlink:href="#DejaVuSans-30" transform="translate(63.623047 0)"/>
       <use xlink:href="#DejaVuSans-30" transform="translate(127.246094 0)"/>
      </g>
     </g>
    </g>
    <g id="xtick_4">
     <g id="line2d_7">
      <path d="M 166.562573 221.902125 
L 166.562573 22.318125 
" clip-path="url(#p6b99f52032)" style="fill: none; stroke: #b0b0b0; stroke-opacity: 0.3; stroke-width: 0.8; stroke-linecap: square"/>
     </g>
     <g id="line2d_8">
      <g>
       <use xlink:href="#m9175fa9e71" x="166.562573" y="221.902125" style="stroke: #000000; stroke-width: 0.8"/>
      </g>
     </g>
     <g id="text_4">
      <!-- 750 -->
      <g transform="translate(157.018823 236.500563) scale(0.1 -0.1)">
       <defs>
        <path id="DejaVuSans-37" d="M 525 4666 
L 3525 4666 
L 3525 4397 
L 1831 0 
L 1172 0 
L 2766 4134 
L 525 4134 
L 525 4666 
z
" transform="scale(0.015625)"/>
       </defs>
       <use xlink:href="#DejaVuSans-37"/>
       <use xlink:href="#DejaVuSans-35" transform="translate(63.623047 0)"/>
       <use xlink:href="#DejaVuSans-30" transform="translate(127.246094 0)"/>
      </g>
     </g>
    </g>
    <g id="xtick_5">
     <g id="line2d_9">
      <path d="M 201.498711 221.902125 
L 201.498711 22.318125 
" clip-path="url(#p6b99f52032)" style="fill: none; stroke: #b0b0b0; stroke-opacity: 0.3; stroke-width: 0.8; stroke-linecap: square"/>
     </g>
     <g id="line2d_10">
      <g>
       <use xlink:href="#m9175fa9e71" x="201.498711" y="221.902125" style="stroke: #000000; stroke-width: 0.8"/>
      </g>
     </g>
     <g id="text_5">
      <!-- 1000 -->
      <g transform="translate(188.773711 236.500563) scale(0.1 -0.1)">
       <defs>
        <path id="DejaVuSans-31" d="M 794 531 
L 1825 531 
L 1825 4091 
L 703 3866 
L 703 4441 
L 1819 4666 
L 2450 4666 
L 2450 531 
L 3481 531 
L 3481 0 
L 794 0 
L 794 531 
z
" transform="scale(0.015625)"/>
       </defs>
       <use xlink:href="#DejaVuSans-31"/>
       <use xlink:href="#DejaVuSans-30" transform="translate(63.623047 0)"/>
       <use xlink:href="#DejaVuSans-30" transform="translate(127.246094 0)"/>
       <use xlink:href="#DejaVuSans-30" transform="translate(190.869141 0)"/>
      </g>
     </g>
    </g>
    <g id="xtick_6">
     <g id="line2d_11">
      <path d="M 236.434849 221.902125 
L 236.434849 22.318125 
" clip-path="url(#p6b99f52032)" style="fill: none; stroke: #b0b0b0; stroke-opacity: 0.3; stroke-width: 0.8; stroke-linecap: square"/>
     </g>
     <g id="line2d_12">
      <g>
       <use xlink:href="#m9175fa9e71" x="236.434849" y="221.902125" style="stroke: #000000; stroke-width: 0.8"/>
      </g>
     </g>
     <g id="text_6">
      <!-- 1250 -->
      <g transform="translate(223.709849 236.500563) scale(0.1 -0.1)">
       <use xlink:href="#DejaVuSans-31"/>
       <use xlink:href="#DejaVuSans-32" transform="translate(63.623047 0)"/>
       <use xlink:href="#DejaVuSans-35" transform="translate(127.246094 0)"/>
       <use xlink:href="#DejaVuSans-30" transform="translate(190.869141 0)"/>
      </g>
     </g>
    </g>
    <g id="xtick_7">
     <g id="line2d_13">
      <path d="M 271.370988 221.902125 
L 271.370988 22.318125 
" clip-path="url(#p6b99f52032)" style="fill: none; stroke: #b0b0b0; stroke-opacity: 0.3; stroke-width: 0.8; stroke-linecap: square"/>
     </g>
     <g id="line2d_14">
      <g>
       <use xlink:href="#m9175fa9e71" x="271.370988" y="221.902125" style="stroke: #000000; stroke-width: 0.8"/>
      </g>
     </g>
     <g id="text_7">
      <!-- 1500 -->
      <g transform="translate(258.645988 236.500563) scale(0.1 -0.1)">
       <use xlink:href="#DejaVuSans-31"/>
       <use xlink:href="#DejaVuSans-35" transform="translate(63.623047 0)"/>
       <use xlink:href="#DejaVuSans-30" transform="translate(127.246094 0)"/>
       <use xlink:href="#DejaVuSans-30" transform="translate(190.869141 0)"/>
      </g>
     </g>
    </g>
    <g id="text_8">
     <!-- gradient-descent step -->
     <g transform="translate(110.433239 250.178687) scale(0.1 -0.1)">
      <defs>
       <path id="DejaVuSans-67" d="M 2906 1791 
Q 2906 2416 2648 2759 
Q 2391 3103 1925 3103 
Q 1463 3103 1205 2759 
Q 947 2416 947 1791 
Q 947 1169 1205 825 
Q 1463 481 1925 481 
Q 2391 481 2648 825 
Q 2906 1169 2906 1791 
z
M 3481 434 
Q 3481 -459 3084 -895 
Q 2688 -1331 1869 -1331 
Q 1566 -1331 1297 -1286 
Q 1028 -1241 775 -1147 
L 775 -588 
Q 1028 -725 1275 -790 
Q 1522 -856 1778 -856 
Q 2344 -856 2625 -561 
Q 2906 -266 2906 331 
L 2906 616 
Q 2728 306 2450 153 
Q 2172 0 1784 0 
Q 1141 0 747 490 
Q 353 981 353 1791 
Q 353 2603 747 3093 
Q 1141 3584 1784 3584 
Q 2172 3584 2450 3431 
Q 2728 3278 2906 2969 
L 2906 3500 
L 3481 3500 
L 3481 434 
z
" transform="scale(0.015625)"/>
       <path id="DejaVuSans-72" d="M 2631 2963 
Q 2534 3019 2420 3045 
Q 2306 3072 2169 3072 
Q 1681 3072 1420 2755 
Q 1159 2438 1159 1844 
L 1159 0 
L 581 0 
L 581 3500 
L 1159 3500 
L 1159 2956 
Q 1341 3275 1631 3429 
Q 1922 3584 2338 3584 
Q 2397 3584 2469 3576 
Q 2541 3569 2628 3553 
L 2631 2963 
z
" transform="scale(0.015625)"/>
       <path id="DejaVuSans-61" d="M 2194 1759 
Q 1497 1759 1228 1600 
Q 959 1441 959 1056 
Q 959 750 1161 570 
Q 1363 391 1709 391 
Q 2188 391 2477 730 
Q 2766 1069 2766 1631 
L 2766 1759 
L 2194 1759 
z
M 3341 1997 
L 3341 0 
L 2766 0 
L 2766 531 
Q 2569 213 2275 61 
Q 1981 -91 1556 -91 
Q 1019 -91 701 211 
Q 384 513 384 1019 
Q 384 1609 779 1909 
Q 1175 2209 1959 2209 
L 2766 2209 
L 2766 2266 
Q 2766 2663 2505 2880 
Q 2244 3097 1772 3097 
Q 1472 3097 1187 3025 
Q 903 2953 641 2809 
L 641 3341 
Q 956 3463 1253 3523 
Q 1550 3584 1831 3584 
Q 2591 3584 2966 3190 
Q 3341 2797 3341 1997 
z
" transform="scale(0.015625)"/>
       <path id="DejaVuSans-64" d="M 2906 2969 
L 2906 4863 
L 3481 4863 
L 3481 0 
L 2906 0 
L 2906 525 
Q 2725 213 2448 61 
Q 2172 -91 1784 -91 
Q 1150 -91 751 415 
Q 353 922 353 1747 
Q 353 2572 751 3078 
Q 1150 3584 1784 3584 
Q 2172 3584 2448 3432 
Q 2725 3281 2906 2969 
z
M 947 1747 
Q 947 1113 1208 752 
Q 1469 391 1925 391 
Q 2381 391 2643 752 
Q 2906 1113 2906 1747 
Q 2906 2381 2643 2742 
Q 2381 3103 1925 3103 
Q 1469 3103 1208 2742 
Q 947 2381 947 1747 
z
" transform="scale(0.015625)"/>
       <path id="DejaVuSans-69" d="M 603 3500 
L 1178 3500 
L 1178 0 
L 603 0 
L 603 3500 
z
M 603 4863 
L 1178 4863 
L 1178 4134 
L 603 4134 
L 603 4863 
z
" transform="scale(0.015625)"/>
       <path id="DejaVuSans-65" d="M 3597 1894 
L 3597 1613 
L 953 1613 
Q 991 1019 1311 708 
Q 1631 397 2203 397 
Q 2534 397 2845 478 
Q 3156 559 3463 722 
L 3463 178 
Q 3153 47 2828 -22 
Q 2503 -91 2169 -91 
Q 1331 -91 842 396 
Q 353 884 353 1716 
Q 353 2575 817 3079 
Q 1281 3584 2069 3584 
Q 2775 3584 3186 3129 
Q 3597 2675 3597 1894 
z
M 3022 2063 
Q 3016 2534 2758 2815 
Q 2500 3097 2075 3097 
Q 1594 3097 1305 2825 
Q 1016 2553 972 2059 
L 3022 2063 
z
" transform="scale(0.015625)"/>
       <path id="DejaVuSans-6e" d="M 3513 2113 
L 3513 0 
L 2938 0 
L 2938 2094 
Q 2938 2591 2744 2837 
Q 2550 3084 2163 3084 
Q 1697 3084 1428 2787 
Q 1159 2491 1159 1978 
L 1159 0 
L 581 0 
L 581 3500 
L 1159 3500 
L 1159 2956 
Q 1366 3272 1645 3428 
Q 1925 3584 2291 3584 
Q 2894 3584 3203 3211 
Q 3513 2838 3513 2113 
z
" transform="scale(0.015625)"/>
       <path id="DejaVuSans-74" d="M 1172 4494 
L 1172 3500 
L 2356 3500 
L 2356 3053 
L 1172 3053 
L 1172 1153 
Q 1172 725 1289 603 
Q 1406 481 1766 481 
L 2356 481 
L 2356 0 
L 1766 0 
Q 1100 0 847 248 
Q 594 497 594 1153 
L 594 3053 
L 172 3053 
L 172 3500 
L 594 3500 
L 594 4494 
L 1172 4494 
z
" transform="scale(0.015625)"/>
       <path id="DejaVuSans-2d" d="M 313 2009 
L 1997 2009 
L 1997 1497 
L 313 1497 
L 313 2009 
z
" transform="scale(0.015625)"/>
       <path id="DejaVuSans-73" d="M 2834 3397 
L 2834 2853 
Q 2591 2978 2328 3040 
Q 2066 3103 1784 3103 
Q 1356 3103 1142 2972 
Q 928 2841 928 2578 
Q 928 2378 1081 2264 
Q 1234 2150 1697 2047 
L 1894 2003 
Q 2506 1872 2764 1633 
Q 3022 1394 3022 966 
Q 3022 478 2636 193 
Q 2250 -91 1575 -91 
Q 1294 -91 989 -36 
Q 684 19 347 128 
L 347 722 
Q 666 556 975 473 
Q 1284 391 1588 391 
Q 1994 391 2212 530 
Q 2431 669 2431 922 
Q 2431 1156 2273 1281 
Q 2116 1406 1581 1522 
L 1381 1569 
Q 847 1681 609 1914 
Q 372 2147 372 2553 
Q 372 3047 722 3315 
Q 1072 3584 1716 3584 
Q 2034 3584 2315 3537 
Q 2597 3491 2834 3397 
z
" transform="scale(0.015625)"/>
       <path id="DejaVuSans-63" d="M 3122 3366 
L 3122 2828 
Q 2878 2963 2633 3030 
Q 2388 3097 2138 3097 
Q 1578 3097 1268 2742 
Q 959 2388 959 1747 
Q 959 1106 1268 751 
Q 1578 397 2138 397 
Q 2388 397 2633 464 
Q 2878 531 3122 666 
L 3122 134 
Q 2881 22 2623 -34 
Q 2366 -91 2075 -91 
Q 1284 -91 818 406 
Q 353 903 353 1747 
Q 353 2603 823 3093 
Q 1294 3584 2113 3584 
Q 2378 3584 2631 3529 
Q 2884 3475 3122 3366 
z
" transform="scale(0.015625)"/>
       <path id="DejaVuSans-20" transform="scale(0.015625)"/>
       <path id="DejaVuSans-70" d="M 1159 525 
L 1159 -1331 
L 581 -1331 
L 581 3500 
L 1159 3500 
L 1159 2969 
Q 1341 3281 1617 3432 
Q 1894 3584 2278 3584 
Q 2916 3584 3314 3078 
Q 3713 2572 3713 1747 
Q 3713 922 3314 415 
Q 2916 -91 2278 -91 
Q 1894 -91 1617 61 
Q 1341 213 1159 525 
z
M 3116 1747 
Q 3116 2381 2855 2742 
Q 2594 3103 2138 3103 
Q 1681 3103 1420 2742 
Q 1159 2381 1159 1747 
Q 1159 1113 1420 752 
Q 1681 391 2138 391 
Q 2594 391 2855 752 
Q 3116 1113 3116 1747 
z
" transform="scale(0.015625)"/>
      </defs>
      <use xlink:href="#DejaVuSans-67"/>
      <use xlink:href="#DejaVuSans-72" transform="translate(63.476562 0)"/>
      <use xlink:href="#DejaVuSans-61" transform="translate(104.589844 0)"/>
      <use xlink:href="#DejaVuSans-64" transform="translate(165.869141 0)"/>
      <use xlink:href="#DejaVuSans-69" transform="translate(229.345703 0)"/>
      <use xlink:href="#DejaVuSans-65" transform="translate(257.128906 0)"/>
      <use xlink:href="#DejaVuSans-6e" transform="translate(318.652344 0)"/>
      <use xlink:href="#DejaVuSans-74" transform="translate(382.03125 0)"/>
      <use xlink:href="#DejaVuSans-2d" transform="translate(421.240234 0)"/>
      <use xlink:href="#DejaVuSans-64" transform="translate(457.324219 0)"/>
      <use xlink:href="#DejaVuSans-65" transform="translate(520.800781 0)"/>
      <use xlink:href="#DejaVuSans-73" transform="translate(582.324219 0)"/>
      <use xlink:href="#DejaVuSans-63" transform="translate(634.423828 0)"/>
      <use xlink:href="#DejaVuSans-65" transform="translate(689.404297 0)"/>
      <use xlink:href="#DejaVuSans-6e" transform="translate(750.927734 0)"/>
      <use xlink:href="#DejaVuSans-74" transform="translate(814.306641 0)"/>
      <use xlink:href="#DejaVuSans-20" transform="translate(853.515625 0)"/>
      <use xlink:href="#DejaVuSans-73" transform="translate(885.302734 0)"/>
      <use xlink:href="#DejaVuSans-74" transform="translate(937.402344 0)"/>
      <use xlink:href="#DejaVuSans-65" transform="translate(976.611328 0)"/>
      <use xlink:href="#DejaVuSans-70" transform="translate(1038.134766 0)"/>
     </g>
    </g>
   </g>
   <g id="matplotlib.axis_2">
    <g id="ytick_1">
     <g id="line2d_15">
      <path d="M 51.378125 155.02611 
L 279.650852 155.02611 
" clip-path="url(#p6b99f52032)" style="fill: none; stroke: #b0b0b0; stroke-opacity: 0.3; stroke-width: 0.8; stroke-linecap: square"/>
     </g>
     <g id="line2d_16">
      <defs>
       <path id="m81533f4734" d="M 0 0 
L -3.5 0 
" style="stroke: #000000; stroke-width: 0.8"/>
      </defs>
      <g>
       <use xlink:href="#m81533f4734" x="51.378125" y="155.02611" style="stroke: #000000; stroke-width: 0.8"/>
      </g>
     </g>
     <g id="text_9">
      <!-- $\mathdefault{10^{-2}}$ -->
      <g transform="translate(20.878125 158.825329) scale(0.1 -0.1)">
       <defs>
        <path id="DejaVuSans-2212" d="M 678 2272 
L 4684 2272 
L 4684 1741 
L 678 1741 
L 678 2272 
z
" transform="scale(0.015625)"/>
       </defs>
       <use xlink:href="#DejaVuSans-31" transform="translate(0 0.765625)"/>
       <use xlink:href="#DejaVuSans-30" transform="translate(63.623047 0.765625)"/>
       <use xlink:href="#DejaVuSans-2212" transform="translate(128.203125 39.046875) scale(0.7)"/>
       <use xlink:href="#DejaVuSans-32" transform="translate(186.855469 39.046875) scale(0.7)"/>
      </g>
     </g>
    </g>
    <g id="ytick_2">
     <g id="line2d_17">
      <path d="M 51.378125 79.648465 
L 279.650852 79.648465 
" clip-path="url(#p6b99f52032)" style="fill: none; stroke: #b0b0b0; stroke-opacity: 0.3; stroke-width: 0.8; stroke-linecap: square"/>
     </g>
     <g id="line2d_18">
      <g>
       <use xlink:href="#m81533f4734" x="51.378125" y="79.648465" style="stroke: #000000; stroke-width: 0.8"/>
      </g>
     </g>
     <g id="text_10">
      <!-- $\mathdefault{10^{-1}}$ -->
      <g transform="translate(20.878125 83.447684) scale(0.1 -0.1)">
       <use xlink:href="#DejaVuSans-31" transform="translate(0 0.684375)"/>
       <use xlink:href="#DejaVuSans-30" transform="translate(63.623047 0.684375)"/>
       <use xlink:href="#DejaVuSans-2212" transform="translate(128.203125 38.965625) scale(0.7)"/>
       <use xlink:href="#DejaVuSans-31" transform="translate(186.855469 38.965625) scale(0.7)"/>
      </g>
     </g>
    </g>
    <g id="ytick_3">
     <g id="line2d_19">
      <path d="M 51.378125 207.712823 
L 279.650852 207.712823 
" clip-path="url(#p6b99f52032)" style="fill: none; stroke: #b0b0b0; stroke-opacity: 0.3; stroke-width: 0.8; stroke-linecap: square"/>
     </g>
     <g id="line2d_20">
      <defs>
       <path id="m28fab0de41" d="M 0 0 
L -2 0 
" style="stroke: #000000; stroke-width: 0.6"/>
      </defs>
      <g>
       <use xlink:href="#m28fab0de41" x="51.378125" y="207.712823" style="stroke: #000000; stroke-width: 0.6"/>
      </g>
     </g>
    </g>
    <g id="ytick_4">
     <g id="line2d_21">
      <path d="M 51.378125 194.439479 
L 279.650852 194.439479 
" clip-path="url(#p6b99f52032)" style="fill: none; stroke: #b0b0b0; stroke-opacity: 0.3; stroke-width: 0.8; stroke-linecap: square"/>
     </g>
     <g id="line2d_22">
      <g>
       <use xlink:href="#m28fab0de41" x="51.378125" y="194.439479" style="stroke: #000000; stroke-width: 0.6"/>
      </g>
     </g>
    </g>
    <g id="ytick_5">
     <g id="line2d_23">
      <path d="M 51.378125 185.021891 
L 279.650852 185.021891 
" clip-path="url(#p6b99f52032)" style="fill: none; stroke: #b0b0b0; stroke-opacity: 0.3; stroke-width: 0.8; stroke-linecap: square"/>
     </g>
     <g id="line2d_24">
      <g>
       <use xlink:href="#m28fab0de41" x="51.378125" y="185.021891" style="stroke: #000000; stroke-width: 0.6"/>
      </g>
     </g>
    </g>
    <g id="ytick_6">
     <g id="line2d_25">
      <path d="M 51.378125 177.717042 
L 279.650852 177.717042 
" clip-path="url(#p6b99f52032)" style="fill: none; stroke: #b0b0b0; stroke-opacity: 0.3; stroke-width: 0.8; stroke-linecap: square"/>
     </g>
     <g id="line2d_26">
      <g>
       <use xlink:href="#m28fab0de41" x="51.378125" y="177.717042" style="stroke: #000000; stroke-width: 0.6"/>
      </g>
     </g>
    </g>
    <g id="ytick_7">
     <g id="line2d_27">
      <path d="M 51.378125 171.748546 
L 279.650852 171.748546 
" clip-path="url(#p6b99f52032)" style="fill: none; stroke: #b0b0b0; stroke-opacity: 0.3; stroke-width: 0.8; stroke-linecap: square"/>
     </g>
     <g id="line2d_28">
      <g>
       <use xlink:href="#m28fab0de41" x="51.378125" y="171.748546" style="stroke: #000000; stroke-width: 0.6"/>
      </g>
     </g>
    </g>
    <g id="ytick_8">
     <g id="line2d_29">
      <path d="M 51.378125 166.702255 
L 279.650852 166.702255 
" clip-path="url(#p6b99f52032)" style="fill: none; stroke: #b0b0b0; stroke-opacity: 0.3; stroke-width: 0.8; stroke-linecap: square"/>
     </g>
     <g id="line2d_30">
      <g>
       <use xlink:href="#m28fab0de41" x="51.378125" y="166.702255" style="stroke: #000000; stroke-width: 0.6"/>
      </g>
     </g>
    </g>
    <g id="ytick_9">
     <g id="line2d_31">
      <path d="M 51.378125 162.330959 
L 279.650852 162.330959 
" clip-path="url(#p6b99f52032)" style="fill: none; stroke: #b0b0b0; stroke-opacity: 0.3; stroke-width: 0.8; stroke-linecap: square"/>
     </g>
     <g id="line2d_32">
      <g>
       <use xlink:href="#m28fab0de41" x="51.378125" y="162.330959" style="stroke: #000000; stroke-width: 0.6"/>
      </g>
     </g>
    </g>
    <g id="ytick_10">
     <g id="line2d_33">
      <path d="M 51.378125 158.475202 
L 279.650852 158.475202 
" clip-path="url(#p6b99f52032)" style="fill: none; stroke: #b0b0b0; stroke-opacity: 0.3; stroke-width: 0.8; stroke-linecap: square"/>
     </g>
     <g id="line2d_34">
      <g>
       <use xlink:href="#m28fab0de41" x="51.378125" y="158.475202" style="stroke: #000000; stroke-width: 0.6"/>
      </g>
     </g>
    </g>
    <g id="ytick_11">
     <g id="line2d_35">
      <path d="M 51.378125 132.335178 
L 279.650852 132.335178 
" clip-path="url(#p6b99f52032)" style="fill: none; stroke: #b0b0b0; stroke-opacity: 0.3; stroke-width: 0.8; stroke-linecap: square"/>
     </g>
     <g id="line2d_36">
      <g>
       <use xlink:href="#m28fab0de41" x="51.378125" y="132.335178" style="stroke: #000000; stroke-width: 0.6"/>
      </g>
     </g>
    </g>
    <g id="ytick_12">
     <g id="line2d_37">
      <path d="M 51.378125 119.061833 
L 279.650852 119.061833 
" clip-path="url(#p6b99f52032)" style="fill: none; stroke: #b0b0b0; stroke-opacity: 0.3; stroke-width: 0.8; stroke-linecap: square"/>
     </g>
     <g id="line2d_38">
      <g>
       <use xlink:href="#m28fab0de41" x="51.378125" y="119.061833" style="stroke: #000000; stroke-width: 0.6"/>
      </g>
     </g>
    </g>
    <g id="ytick_13">
     <g id="line2d_39">
      <path d="M 51.378125 109.644246 
L 279.650852 109.644246 
" clip-path="url(#p6b99f52032)" style="fill: none; stroke: #b0b0b0; stroke-opacity: 0.3; stroke-width: 0.8; stroke-linecap: square"/>
     </g>
     <g id="line2d_40">
      <g>
       <use xlink:href="#m28fab0de41" x="51.378125" y="109.644246" style="stroke: #000000; stroke-width: 0.6"/>
      </g>
     </g>
    </g>
    <g id="ytick_14">
     <g id="line2d_41">
      <path d="M 51.378125 102.339397 
L 279.650852 102.339397 
" clip-path="url(#p6b99f52032)" style="fill: none; stroke: #b0b0b0; stroke-opacity: 0.3; stroke-width: 0.8; stroke-linecap: square"/>
     </g>
     <g id="line2d_42">
      <g>
       <use xlink:href="#m28fab0de41" x="51.378125" y="102.339397" style="stroke: #000000; stroke-width: 0.6"/>
      </g>
     </g>
    </g>
    <g id="ytick_15">
     <g id="line2d_43">
      <path d="M 51.378125 96.370901 
L 279.650852 96.370901 
" clip-path="url(#p6b99f52032)" style="fill: none; stroke: #b0b0b0; stroke-opacity: 0.3; stroke-width: 0.8; stroke-linecap: square"/>
     </g>
     <g id="line2d_44">
      <g>
       <use xlink:href="#m28fab0de41" x="51.378125" y="96.370901" style="stroke: #000000; stroke-width: 0.6"/>
      </g>
     </g>
    </g>
    <g id="ytick_16">
     <g id="line2d_45">
      <path d="M 51.378125 91.32461 
L 279.650852 91.32461 
" clip-path="url(#p6b99f52032)" style="fill: none; stroke: #b0b0b0; stroke-opacity: 0.3; stroke-width: 0.8; stroke-linecap: square"/>
     </g>
     <g id="line2d_46">
      <g>
       <use xlink:href="#m28fab0de41" x="51.378125" y="91.32461" style="stroke: #000000; stroke-width: 0.6"/>
      </g>
     </g>
    </g>
    <g id="ytick_17">
     <g id="line2d_47">
      <path d="M 51.378125 86.953313 
L 279.650852 86.953313 
" clip-path="url(#p6b99f52032)" style="fill: none; stroke: #b0b0b0; stroke-opacity: 0.3; stroke-width: 0.8; stroke-linecap: square"/>
     </g>
     <g id="line2d_48">
      <g>
       <use xlink:href="#m28fab0de41" x="51.378125" y="86.953313" style="stroke: #000000; stroke-width: 0.6"/>
      </g>
     </g>
    </g>
    <g id="ytick_18">
     <g id="line2d_49">
      <path d="M 51.378125 83.097557 
L 279.650852 83.097557 
" clip-path="url(#p6b99f52032)" style="fill: none; stroke: #b0b0b0; stroke-opacity: 0.3; stroke-width: 0.8; stroke-linecap: square"/>
     </g>
     <g id="line2d_50">
      <g>
       <use xlink:href="#m28fab0de41" x="51.378125" y="83.097557" style="stroke: #000000; stroke-width: 0.6"/>
      </g>
     </g>
    </g>
    <g id="ytick_19">
     <g id="line2d_51">
      <path d="M 51.378125 56.957533 
L 279.650852 56.957533 
" clip-path="url(#p6b99f52032)" style="fill: none; stroke: #b0b0b0; stroke-opacity: 0.3; stroke-width: 0.8; stroke-linecap: square"/>
     </g>
     <g id="line2d_52">
      <g>
       <use xlink:href="#m28fab0de41" x="51.378125" y="56.957533" style="stroke: #000000; stroke-width: 0.6"/>
      </g>
     </g>
    </g>
    <g id="ytick_20">
     <g id="line2d_53">
      <path d="M 51.378125 43.684188 
L 279.650852 43.684188 
" clip-path="url(#p6b99f52032)" style="fill: none; stroke: #b0b0b0; stroke-opacity: 0.3; stroke-width: 0.8; stroke-linecap: square"/>
     </g>
     <g id="line2d_54">
      <g>
       <use xlink:href="#m28fab0de41" x="51.378125" y="43.684188" style="stroke: #000000; stroke-width: 0.6"/>
      </g>
     </g>
    </g>
    <g id="ytick_21">
     <g id="line2d_55">
      <path d="M 51.378125 34.2666 
L 279.650852 34.2666 
" clip-path="url(#p6b99f52032)" style="fill: none; stroke: #b0b0b0; stroke-opacity: 0.3; stroke-width: 0.8; stroke-linecap: square"/>
     </g>
     <g id="line2d_56">
      <g>
       <use xlink:href="#m28fab0de41" x="51.378125" y="34.2666" style="stroke: #000000; stroke-width: 0.6"/>
      </g>
     </g>
    </g>
    <g id="ytick_22">
     <g id="line2d_57">
      <path d="M 51.378125 26.961752 
L 279.650852 26.961752 
" clip-path="url(#p6b99f52032)" style="fill: none; stroke: #b0b0b0; stroke-opacity: 0.3; stroke-width: 0.8; stroke-linecap: square"/>
     </g>
     <g id="line2d_58">
      <g>
       <use xlink:href="#m28fab0de41" x="51.378125" y="26.961752" style="stroke: #000000; stroke-width: 0.6"/>
      </g>
     </g>
    </g>
    <g id="text_11">
     <!-- mean squared error (log) -->
     <g transform="translate(14.798438 184.889031) rotate(-90) scale(0.1 -0.1)">
      <defs>
       <path id="DejaVuSans-6d" d="M 3328 2828 
Q 3544 3216 3844 3400 
Q 4144 3584 4550 3584 
Q 5097 3584 5394 3201 
Q 5691 2819 5691 2113 
L 5691 0 
L 5113 0 
L 5113 2094 
Q 5113 2597 4934 2840 
Q 4756 3084 4391 3084 
Q 3944 3084 3684 2787 
Q 3425 2491 3425 1978 
L 3425 0 
L 2847 0 
L 2847 2094 
Q 2847 2600 2669 2842 
Q 2491 3084 2119 3084 
Q 1678 3084 1418 2786 
Q 1159 2488 1159 1978 
L 1159 0 
L 581 0 
L 581 3500 
L 1159 3500 
L 1159 2956 
Q 1356 3278 1631 3431 
Q 1906 3584 2284 3584 
Q 2666 3584 2933 3390 
Q 3200 3197 3328 2828 
z
" transform="scale(0.015625)"/>
       <path id="DejaVuSans-71" d="M 947 1747 
Q 947 1113 1208 752 
Q 1469 391 1925 391 
Q 2381 391 2643 752 
Q 2906 1113 2906 1747 
Q 2906 2381 2643 2742 
Q 2381 3103 1925 3103 
Q 1469 3103 1208 2742 
Q 947 2381 947 1747 
z
M 2906 525 
Q 2725 213 2448 61 
Q 2172 -91 1784 -91 
Q 1150 -91 751 415 
Q 353 922 353 1747 
Q 353 2572 751 3078 
Q 1150 3584 1784 3584 
Q 2172 3584 2448 3432 
Q 2725 3281 2906 2969 
L 2906 3500 
L 3481 3500 
L 3481 -1331 
L 2906 -1331 
L 2906 525 
z
" transform="scale(0.015625)"/>
       <path id="DejaVuSans-75" d="M 544 1381 
L 544 3500 
L 1119 3500 
L 1119 1403 
Q 1119 906 1312 657 
Q 1506 409 1894 409 
Q 2359 409 2629 706 
Q 2900 1003 2900 1516 
L 2900 3500 
L 3475 3500 
L 3475 0 
L 2900 0 
L 2900 538 
Q 2691 219 2414 64 
Q 2138 -91 1772 -91 
Q 1169 -91 856 284 
Q 544 659 544 1381 
z
M 1991 3584 
L 1991 3584 
z
" transform="scale(0.015625)"/>
       <path id="DejaVuSans-6f" d="M 1959 3097 
Q 1497 3097 1228 2736 
Q 959 2375 959 1747 
Q 959 1119 1226 758 
Q 1494 397 1959 397 
Q 2419 397 2687 759 
Q 2956 1122 2956 1747 
Q 2956 2369 2687 2733 
Q 2419 3097 1959 3097 
z
M 1959 3584 
Q 2709 3584 3137 3096 
Q 3566 2609 3566 1747 
Q 3566 888 3137 398 
Q 2709 -91 1959 -91 
Q 1206 -91 779 398 
Q 353 888 353 1747 
Q 353 2609 779 3096 
Q 1206 3584 1959 3584 
z
" transform="scale(0.015625)"/>
       <path id="DejaVuSans-28" d="M 1984 4856 
Q 1566 4138 1362 3434 
Q 1159 2731 1159 2009 
Q 1159 1288 1364 580 
Q 1569 -128 1984 -844 
L 1484 -844 
Q 1016 -109 783 600 
Q 550 1309 550 2009 
Q 550 2706 781 3412 
Q 1013 4119 1484 4856 
L 1984 4856 
z
" transform="scale(0.015625)"/>
       <path id="DejaVuSans-6c" d="M 603 4863 
L 1178 4863 
L 1178 0 
L 603 0 
L 603 4863 
z
" transform="scale(0.015625)"/>
       <path id="DejaVuSans-29" d="M 513 4856 
L 1013 4856 
Q 1481 4119 1714 3412 
Q 1947 2706 1947 2009 
Q 1947 1309 1714 600 
Q 1481 -109 1013 -844 
L 513 -844 
Q 928 -128 1133 580 
Q 1338 1288 1338 2009 
Q 1338 2731 1133 3434 
Q 928 4138 513 4856 
z
" transform="scale(0.015625)"/>
      </defs>
      <use xlink:href="#DejaVuSans-6d"/>
      <use xlink:href="#DejaVuSans-65" transform="translate(97.412109 0)"/>
      <use xlink:href="#DejaVuSans-61" transform="translate(158.935547 0)"/>
      <use xlink:href="#DejaVuSans-6e" transform="translate(220.214844 0)"/>
      <use xlink:href="#DejaVuSans-20" transform="translate(283.59375 0)"/>
      <use xlink:href="#DejaVuSans-73" transform="translate(315.380859 0)"/>
      <use xlink:href="#DejaVuSans-71" transform="translate(367.480469 0)"/>
      <use xlink:href="#DejaVuSans-75" transform="translate(430.957031 0)"/>
      <use xlink:href="#DejaVuSans-61" transform="translate(494.335938 0)"/>
      <use xlink:href="#DejaVuSans-72" transform="translate(555.615234 0)"/>
      <use xlink:href="#DejaVuSans-65" transform="translate(594.478516 0)"/>
      <use xlink:href="#DejaVuSans-64" transform="translate(656.001953 0)"/>
      <use xlink:href="#DejaVuSans-20" transform="translate(719.478516 0)"/>
      <use xlink:href="#DejaVuSans-65" transform="translate(751.265625 0)"/>
      <use xlink:href="#DejaVuSans-72" transform="translate(812.789062 0)"/>
      <use xlink:href="#DejaVuSans-72" transform="translate(852.152344 0)"/>
      <use xlink:href="#DejaVuSans-6f" transform="translate(891.015625 0)"/>
      <use xlink:href="#DejaVuSans-72" transform="translate(952.197266 0)"/>
      <use xlink:href="#DejaVuSans-20" transform="translate(993.310547 0)"/>
      <use xlink:href="#DejaVuSans-28" transform="translate(1025.097656 0)"/>
      <use xlink:href="#DejaVuSans-6c" transform="translate(1064.111328 0)"/>
      <use xlink:href="#DejaVuSans-6f" transform="translate(1091.894531 0)"/>
      <use xlink:href="#DejaVuSans-67" transform="translate(1153.076172 0)"/>
      <use xlink:href="#DejaVuSans-29" transform="translate(1216.552734 0)"/>
     </g>
    </g>
   </g>
   <g id="line2d_59">
    <path d="M 61.754158 31.390125 
L 63.850326 60.078466 
L 65.946495 63.071638 
L 68.042663 65.998241 
L 70.138831 69.005527 
L 72.235 72.231634 
L 74.331168 75.702451 
L 76.427336 79.363001 
L 78.523504 83.132427 
L 80.619673 87.071891 
L 82.715841 91.139931 
L 84.812009 95.359892 
L 86.908178 99.760828 
L 89.004346 104.327786 
L 91.100514 109.014072 
L 93.196682 113.788554 
L 95.292851 118.64087 
L 97.389019 123.523112 
L 99.485187 128.376451 
L 101.581356 133.143358 
L 103.677524 137.753515 
L 105.773692 142.176765 
L 107.869861 146.379945 
L 109.966029 150.333997 
L 112.062197 153.998953 
L 114.158365 157.344487 
L 116.254534 160.34807 
L 118.350702 163.018987 
L 120.44687 165.354553 
L 122.543039 167.369596 
L 124.639207 169.087292 
L 126.735375 170.552723 
L 128.831543 171.829439 
L 130.927712 173.065925 
L 133.02388 174.305611 
L 135.120048 175.485727 
L 137.216217 176.730963 
L 139.312385 177.899082 
L 141.408553 179.086137 
L 143.504722 180.412738 
L 145.60089 181.701818 
L 147.697058 182.94462 
L 149.793226 184.313957 
L 151.889395 185.601931 
L 153.985563 186.85082 
L 156.081731 188.099833 
L 158.1779 189.261103 
L 160.274068 190.573861 
L 162.370236 191.865849 
L 164.466404 193.054891 
L 166.562573 194.12895 
L 168.658741 195.112968 
L 170.754909 195.976454 
L 172.851078 196.787307 
L 174.947246 197.552048 
L 177.043414 198.283819 
L 179.139583 198.976669 
L 181.235751 199.5781 
L 183.331919 200.112493 
L 185.428087 200.622247 
L 187.524256 201.109655 
L 189.620424 201.558644 
L 191.716592 201.986795 
L 193.812761 202.397573 
L 195.908929 202.771582 
L 198.005097 203.118241 
L 200.101265 203.567261 
L 202.197434 203.993259 
L 204.293602 204.379253 
L 206.38977 204.747202 
L 208.485939 205.09929 
L 210.582107 205.43704 
L 212.678275 205.761598 
L 214.774444 206.073873 
L 216.870612 206.374622 
L 218.96678 206.664499 
L 221.062948 206.930984 
L 223.159117 207.283996 
L 225.255285 207.664387 
L 227.351453 208.022159 
L 229.447622 208.360031 
L 231.54379 208.679808 
L 233.639958 208.982863 
L 235.736127 209.270342 
L 237.832295 209.543262 
L 239.928463 209.802552 
L 242.024631 210.071914 
L 244.1208 210.385887 
L 246.216968 210.677586 
L 248.313136 210.935489 
L 250.409305 211.174155 
L 252.505473 211.3973 
L 254.601641 211.606329 
L 256.697809 211.802817 
L 258.793978 211.988375 
L 260.890146 212.164358 
L 262.986314 212.33176 
L 265.082483 212.491376 
L 267.178651 212.655388 
L 269.274819 212.830125 
" clip-path="url(#p6b99f52032)" style="fill: none; stroke: #1f77b4; stroke-width: 1.5; stroke-linecap: square"/>
   </g>
   <g id="patch_3">
    <path d="M 51.378125 221.902125 
L 51.378125 22.318125 
" style="fill: none; stroke: #000000; stroke-width: 0.8; stroke-linejoin: miter; stroke-linecap: square"/>
   </g>
   <g id="patch_4">
    <path d="M 279.650852 221.902125 
L 279.650852 22.318125 
" style="fill: none; stroke: #000000; stroke-width: 0.8; stroke-linejoin: miter; stroke-linecap: square"/>
   </g>
   <g id="patch_5">
    <path d="M 51.378125 221.902125 
L 279.650852 221.902125 
" style="fill: none; stroke: #000000; stroke-width: 0.8; stroke-linejoin: miter; stroke-linecap: square"/>
   </g>
   <g id="patch_6">
    <path d="M 51.378125 22.318125 
L 279.650852 22.318125 
" style="fill: none; stroke: #000000; stroke-width: 0.8; stroke-linejoin: miter; stroke-linecap: square"/>
   </g>
   <g id="text_12">
    <!-- Training loss -->
    <g transform="translate(128.347301 16.318125) scale(0.12 -0.12)">
     <defs>
      <path id="DejaVuSans-54" d="M -19 4666 
L 3928 4666 
L 3928 4134 
L 2272 4134 
L 2272 0 
L 1638 0 
L 1638 4134 
L -19 4134 
L -19 4666 
z
" transform="scale(0.015625)"/>
     </defs>
     <use xlink:href="#DejaVuSans-54"/>
     <use xlink:href="#DejaVuSans-72" transform="translate(46.333984 0)"/>
     <use xlink:href="#DejaVuSans-61" transform="translate(87.447266 0)"/>
     <use xlink:href="#DejaVuSans-69" transform="translate(148.726562 0)"/>
     <use xlink:href="#DejaVuSans-6e" transform="translate(176.509766 0)"/>
     <use xlink:href="#DejaVuSans-69" transform="translate(239.888672 0)"/>
     <use xlink:href="#DejaVuSans-6e" transform="translate(267.671875 0)"/>
     <use xlink:href="#DejaVuSans-67" transform="translate(331.050781 0)"/>
     <use xlink:href="#DejaVuSans-20" transform="translate(394.527344 0)"/>
     <use xlink:href="#DejaVuSans-6c" transform="translate(426.314453 0)"/>
     <use xlink:href="#DejaVuSans-6f" transform="translate(454.097656 0)"/>
     <use xlink:href="#DejaVuSans-73" transform="translate(515.279297 0)"/>
     <use xlink:href="#DejaVuSans-73" transform="translate(567.378906 0)"/>
    </g>
   </g>
  </g>
  <g id="axes_2">
   <g id="patch_7">
    <path d="M 325.305398 221.902125 
L 553.578125 221.902125 
L 553.578125 22.318125 
L 325.305398 22.318125 
z
" style="fill: #ffffff"/>
   </g>
   <g id="matplotlib.axis_3">
    <g id="xtick_8">
     <g id="line2d_60">
      <g>
       <use xlink:href="#m9175fa9e71" x="335.681431" y="221.902125" style="stroke: #000000; stroke-width: 0.8"/>
      </g>
     </g>
     <g id="text_13">
      <!-- −1.0 -->
      <g transform="translate(323.540025 236.500563) scale(0.1 -0.1)">
       <defs>
        <path id="DejaVuSans-2e" d="M 684 794 
L 1344 794 
L 1344 0 
L 684 0 
L 684 794 
z
" transform="scale(0.015625)"/>
       </defs>
       <use xlink:href="#DejaVuSans-2212"/>
       <use xlink:href="#DejaVuSans-31" transform="translate(83.789062 0)"/>
       <use xlink:href="#DejaVuSans-2e" transform="translate(147.412109 0)"/>
       <use xlink:href="#DejaVuSans-30" transform="translate(179.199219 0)"/>
      </g>
     </g>
    </g>
    <g id="xtick_9">
     <g id="line2d_61">
      <g>
       <use xlink:href="#m9175fa9e71" x="387.561596" y="221.902125" style="stroke: #000000; stroke-width: 0.8"/>
      </g>
     </g>
     <g id="text_14">
      <!-- −0.5 -->
      <g transform="translate(375.42019 236.500563) scale(0.1 -0.1)">
       <use xlink:href="#DejaVuSans-2212"/>
       <use xlink:href="#DejaVuSans-30" transform="translate(83.789062 0)"/>
       <use xlink:href="#DejaVuSans-2e" transform="translate(147.412109 0)"/>
       <use xlink:href="#DejaVuSans-35" transform="translate(179.199219 0)"/>
      </g>
     </g>
    </g>
    <g id="xtick_10">
     <g id="line2d_62">
      <g>
       <use xlink:href="#m9175fa9e71" x="439.441761" y="221.902125" style="stroke: #000000; stroke-width: 0.8"/>
      </g>
     </g>
     <g id="text_15">
      <!-- 0.0 -->
      <g transform="translate(431.490199 236.500563) scale(0.1 -0.1)">
       <use xlink:href="#DejaVuSans-30"/>
       <use xlink:href="#DejaVuSans-2e" transform="translate(63.623047 0)"/>
       <use xlink:href="#DejaVuSans-30" transform="translate(95.410156 0)"/>
      </g>
     </g>
    </g>
    <g id="xtick_11">
     <g id="line2d_63">
      <g>
       <use xlink:href="#m9175fa9e71" x="491.321927" y="221.902125" style="stroke: #000000; stroke-width: 0.8"/>
      </g>
     </g>
     <g id="text_16">
      <!-- 0.5 -->
      <g transform="translate(483.370364 236.500563) scale(0.1 -0.1)">
       <use xlink:href="#DejaVuSans-30"/>
       <use xlink:href="#DejaVuSans-2e" transform="translate(63.623047 0)"/>
       <use xlink:href="#DejaVuSans-35" transform="translate(95.410156 0)"/>
      </g>
     </g>
    </g>
    <g id="xtick_12">
     <g id="line2d_64">
      <g>
       <use xlink:href="#m9175fa9e71" x="543.202092" y="221.902125" style="stroke: #000000; stroke-width: 0.8"/>
      </g>
     </g>
     <g id="text_17">
      <!-- 1.0 -->
      <g transform="translate(535.250529 236.500563) scale(0.1 -0.1)">
       <use xlink:href="#DejaVuSans-31"/>
       <use xlink:href="#DejaVuSans-2e" transform="translate(63.623047 0)"/>
       <use xlink:href="#DejaVuSans-30" transform="translate(95.410156 0)"/>
      </g>
     </g>
    </g>
    <g id="text_18">
     <!-- $x$ -->
     <g transform="translate(436.441761 250.178687) scale(0.1 -0.1)">
      <defs>
       <path id="DejaVuSans-Oblique-78" d="M 3841 3500 
L 2234 1784 
L 3219 0 
L 2559 0 
L 1819 1388 
L 531 0 
L -166 0 
L 1556 1844 
L 641 3500 
L 1300 3500 
L 1972 2234 
L 3144 3500 
L 3841 3500 
z
" transform="scale(0.015625)"/>
      </defs>
      <use xlink:href="#DejaVuSans-Oblique-78" transform="translate(0 0.3125)"/>
     </g>
    </g>
   </g>
   <g id="matplotlib.axis_4">
    <g id="ytick_23">
     <g id="line2d_65">
      <g>
       <use xlink:href="#m81533f4734" x="325.305398" y="209.674258" style="stroke: #000000; stroke-width: 0.8"/>
      </g>
     </g>
     <g id="text_19">
      <!-- −1.0 -->
      <g transform="translate(294.022585 213.473476) scale(0.1 -0.1)">
       <use xlink:href="#DejaVuSans-2212"/>
       <use xlink:href="#DejaVuSans-31" transform="translate(83.789062 0)"/>
       <use xlink:href="#DejaVuSans-2e" transform="translate(147.412109 0)"/>
       <use xlink:href="#DejaVuSans-30" transform="translate(179.199219 0)"/>
      </g>
     </g>
    </g>
    <g id="ytick_24">
     <g id="line2d_66">
      <g>
       <use xlink:href="#m81533f4734" x="325.305398" y="167.213314" style="stroke: #000000; stroke-width: 0.8"/>
      </g>
     </g>
     <g id="text_20">
      <!-- −0.5 -->
      <g transform="translate(294.022585 171.012533) scale(0.1 -0.1)">
       <use xlink:href="#DejaVuSans-2212"/>
       <use xlink:href="#DejaVuSans-30" transform="translate(83.789062 0)"/>
       <use xlink:href="#DejaVuSans-2e" transform="translate(147.412109 0)"/>
       <use xlink:href="#DejaVuSans-35" transform="translate(179.199219 0)"/>
      </g>
     </g>
    </g>
    <g id="ytick_25">
     <g id="line2d_67">
      <g>
       <use xlink:href="#m81533f4734" x="325.305398" y="124.75237" style="stroke: #000000; stroke-width: 0.8"/>
      </g>
     </g>
     <g id="text_21">
      <!-- 0.0 -->
      <g transform="translate(302.402273 128.551589) scale(0.1 -0.1)">
       <use xlink:href="#DejaVuSans-30"/>
       <use xlink:href="#DejaVuSans-2e" transform="translate(63.623047 0)"/>
       <use xlink:href="#DejaVuSans-30" transform="translate(95.410156 0)"/>
      </g>
     </g>
    </g>
    <g id="ytick_26">
     <g id="line2d_68">
      <g>
       <use xlink:href="#m81533f4734" x="325.305398" y="82.291427" style="stroke: #000000; stroke-width: 0.8"/>
      </g>
     </g>
     <g id="text_22">
      <!-- 0.5 -->
      <g transform="translate(302.402273 86.090646) scale(0.1 -0.1)">
       <use xlink:href="#DejaVuSans-30"/>
       <use xlink:href="#DejaVuSans-2e" transform="translate(63.623047 0)"/>
       <use xlink:href="#DejaVuSans-35" transform="translate(95.410156 0)"/>
      </g>
     </g>
    </g>
    <g id="ytick_27">
     <g id="line2d_69">
      <g>
       <use xlink:href="#m81533f4734" x="325.305398" y="39.830483" style="stroke: #000000; stroke-width: 0.8"/>
      </g>
     </g>
     <g id="text_23">
      <!-- 1.0 -->
      <g transform="translate(302.402273 43.629702) scale(0.1 -0.1)">
       <use xlink:href="#DejaVuSans-31"/>
       <use xlink:href="#DejaVuSans-2e" transform="translate(63.623047 0)"/>
       <use xlink:href="#DejaVuSans-30" transform="translate(95.410156 0)"/>
      </g>
     </g>
    </g>
   </g>
   <g id="line2d_70">
    <defs>
     <path id="m3761707c81" d="M 0 1.5 
C 0.397805 1.5 0.77937 1.341951 1.06066 1.06066 
C 1.341951 0.77937 1.5 0.397805 1.5 0 
C 1.5 -0.397805 1.341951 -0.77937 1.06066 -1.06066 
C 0.77937 -1.341951 0.397805 -1.5 0 -1.5 
C -0.397805 -1.5 -0.77937 -1.341951 -1.06066 -1.06066 
C -1.341951 -0.77937 -1.5 -0.397805 -1.5 0 
C -1.5 0.397805 -1.341951 0.77937 -1.06066 1.06066 
C -0.77937 1.341951 -0.397805 1.5 0 1.5 
z
" style="stroke: #1f77b4"/>
    </defs>
    <g clip-path="url(#p049e50f59a)">
     <use xlink:href="#m3761707c81" x="335.681431" y="124.75237" style="fill: #1f77b4; stroke: #1f77b4"/>
     <use xlink:href="#m3761707c81" x="338.97541" y="133.20786" style="fill: #1f77b4; stroke: #1f77b4"/>
     <use xlink:href="#m3761707c81" x="342.269388" y="141.579315" style="fill: #1f77b4; stroke: #1f77b4"/>
     <use xlink:href="#m3761707c81" x="345.563367" y="149.783536" style="fill: #1f77b4; stroke: #1f77b4"/>
     <use xlink:href="#m3761707c81" x="348.857346" y="157.738986" style="fill: #1f77b4; stroke: #1f77b4"/>
     <use xlink:href="#m3761707c81" x="352.151325" y="165.366601" style="fill: #1f77b4; stroke: #1f77b4"/>
     <use xlink:href="#m3761707c81" x="355.445303" y="172.590573" style="fill: #1f77b4; stroke: #1f77b4"/>
     <use xlink:href="#m3761707c81" x="358.739282" y="179.339107" style="fill: #1f77b4; stroke: #1f77b4"/>
     <use xlink:href="#m3761707c81" x="362.033261" y="185.545134" style="fill: #1f77b4; stroke: #1f77b4"/>
     <use xlink:href="#m3761707c81" x="365.32724" y="191.146975" style="fill: #1f77b4; stroke: #1f77b4"/>
     <use xlink:href="#m3761707c81" x="368.621218" y="196.088957" style="fill: #1f77b4; stroke: #1f77b4"/>
     <use xlink:href="#m3761707c81" x="371.915197" y="200.321964" style="fill: #1f77b4; stroke: #1f77b4"/>
     <use xlink:href="#m3761707c81" x="375.209176" y="203.803926" style="fill: #1f77b4; stroke: #1f77b4"/>
     <use xlink:href="#m3761707c81" x="378.503155" y="206.500238" style="fill: #1f77b4; stroke: #1f77b4"/>
     <use xlink:href="#m3761707c81" x="381.797133" y="208.384103" style="fill: #1f77b4; stroke: #1f77b4"/>
     <use xlink:href="#m3761707c81" x="385.091112" y="209.436799" style="fill: #1f77b4; stroke: #1f77b4"/>
     <use xlink:href="#m3761707c81" x="388.385091" y="209.647862" style="fill: #1f77b4; stroke: #1f77b4"/>
     <use xlink:href="#m3761707c81" x="391.67907" y="209.015196" style="fill: #1f77b4; stroke: #1f77b4"/>
     <use xlink:href="#m3761707c81" x="394.973048" y="207.545089" style="fill: #1f77b4; stroke: #1f77b4"/>
     <use xlink:href="#m3761707c81" x="398.267027" y="205.25215" style="fill: #1f77b4; stroke: #1f77b4"/>
     <use xlink:href="#m3761707c81" x="401.561006" y="202.159168" style="fill: #1f77b4; stroke: #1f77b4"/>
     <use xlink:href="#m3761707c81" x="404.854985" y="198.296882" style="fill: #1f77b4; stroke: #1f77b4"/>
     <use xlink:href="#m3761707c81" x="408.148963" y="193.703678" style="fill: #1f77b4; stroke: #1f77b4"/>
     <use xlink:href="#m3761707c81" x="411.442942" y="188.425205" style="fill: #1f77b4; stroke: #1f77b4"/>
     <use xlink:href="#m3761707c81" x="414.736921" y="182.513923" style="fill: #1f77b4; stroke: #1f77b4"/>
     <use xlink:href="#m3761707c81" x="418.030899" y="176.02858" style="fill: #1f77b4; stroke: #1f77b4"/>
     <use xlink:href="#m3761707c81" x="421.324878" y="169.033632" style="fill: #1f77b4; stroke: #1f77b4"/>
     <use xlink:href="#m3761707c81" x="424.618857" y="161.598596" style="fill: #1f77b4; stroke: #1f77b4"/>
     <use xlink:href="#m3761707c81" x="427.912836" y="153.797366" style="fill: #1f77b4; stroke: #1f77b4"/>
     <use xlink:href="#m3761707c81" x="431.206814" y="145.707474" style="fill: #1f77b4; stroke: #1f77b4"/>
     <use xlink:href="#m3761707c81" x="434.500793" y="137.409321" style="fill: #1f77b4; stroke: #1f77b4"/>
     <use xlink:href="#m3761707c81" x="437.794772" y="128.985377" style="fill: #1f77b4; stroke: #1f77b4"/>
     <use xlink:href="#m3761707c81" x="441.088751" y="120.519364" style="fill: #1f77b4; stroke: #1f77b4"/>
     <use xlink:href="#m3761707c81" x="444.382729" y="112.09542" style="fill: #1f77b4; stroke: #1f77b4"/>
     <use xlink:href="#m3761707c81" x="447.676708" y="103.797267" style="fill: #1f77b4; stroke: #1f77b4"/>
     <use xlink:href="#m3761707c81" x="450.970687" y="95.707374" style="fill: #1f77b4; stroke: #1f77b4"/>
     <use xlink:href="#m3761707c81" x="454.264666" y="87.906144" style="fill: #1f77b4; stroke: #1f77b4"/>
     <use xlink:href="#m3761707c81" x="457.558644" y="80.471109" style="fill: #1f77b4; stroke: #1f77b4"/>
     <use xlink:href="#m3761707c81" x="460.852623" y="73.47616" style="fill: #1f77b4; stroke: #1f77b4"/>
     <use xlink:href="#m3761707c81" x="464.146602" y="66.990818" style="fill: #1f77b4; stroke: #1f77b4"/>
     <use xlink:href="#m3761707c81" x="467.440581" y="61.079536" style="fill: #1f77b4; stroke: #1f77b4"/>
     <use xlink:href="#m3761707c81" x="470.734559" y="55.801063" style="fill: #1f77b4; stroke: #1f77b4"/>
     <use xlink:href="#m3761707c81" x="474.028538" y="51.207859" style="fill: #1f77b4; stroke: #1f77b4"/>
     <use xlink:href="#m3761707c81" x="477.322517" y="47.345573" style="fill: #1f77b4; stroke: #1f77b4"/>
     <use xlink:href="#m3761707c81" x="480.616496" y="44.252591" style="fill: #1f77b4; stroke: #1f77b4"/>
     <use xlink:href="#m3761707c81" x="483.910474" y="41.959652" style="fill: #1f77b4; stroke: #1f77b4"/>
     <use xlink:href="#m3761707c81" x="487.204453" y="40.489544" style="fill: #1f77b4; stroke: #1f77b4"/>
     <use xlink:href="#m3761707c81" x="490.498432" y="39.856879" style="fill: #1f77b4; stroke: #1f77b4"/>
     <use xlink:href="#m3761707c81" x="493.792411" y="40.067942" style="fill: #1f77b4; stroke: #1f77b4"/>
     <use xlink:href="#m3761707c81" x="497.086389" y="41.120638" style="fill: #1f77b4; stroke: #1f77b4"/>
     <use xlink:href="#m3761707c81" x="500.380368" y="43.004503" style="fill: #1f77b4; stroke: #1f77b4"/>
     <use xlink:href="#m3761707c81" x="503.674347" y="45.700815" style="fill: #1f77b4; stroke: #1f77b4"/>
     <use xlink:href="#m3761707c81" x="506.968326" y="49.182777" style="fill: #1f77b4; stroke: #1f77b4"/>
     <use xlink:href="#m3761707c81" x="510.262304" y="53.415784" style="fill: #1f77b4; stroke: #1f77b4"/>
     <use xlink:href="#m3761707c81" x="513.556283" y="58.357765" style="fill: #1f77b4; stroke: #1f77b4"/>
     <use xlink:href="#m3761707c81" x="516.850262" y="63.959607" style="fill: #1f77b4; stroke: #1f77b4"/>
     <use xlink:href="#m3761707c81" x="520.144241" y="70.165634" style="fill: #1f77b4; stroke: #1f77b4"/>
     <use xlink:href="#m3761707c81" x="523.438219" y="76.914168" style="fill: #1f77b4; stroke: #1f77b4"/>
     <use xlink:href="#m3761707c81" x="526.732198" y="84.13814" style="fill: #1f77b4; stroke: #1f77b4"/>
     <use xlink:href="#m3761707c81" x="530.026177" y="91.765754" style="fill: #1f77b4; stroke: #1f77b4"/>
     <use xlink:href="#m3761707c81" x="533.320156" y="99.721205" style="fill: #1f77b4; stroke: #1f77b4"/>
     <use xlink:href="#m3761707c81" x="536.614134" y="107.925426" style="fill: #1f77b4; stroke: #1f77b4"/>
     <use xlink:href="#m3761707c81" x="539.908113" y="116.296881" style="fill: #1f77b4; stroke: #1f77b4"/>
     <use xlink:href="#m3761707c81" x="543.202092" y="124.75237" style="fill: #1f77b4; stroke: #1f77b4"/>
    </g>
   </g>
   <g id="line2d_71">
    <path d="M 335.681431 129.348995 
L 338.97541 136.136526 
L 342.269388 142.924058 
L 345.563367 149.71159 
L 348.857346 156.499121 
L 352.151325 163.286653 
L 355.445303 170.074184 
L 358.739282 176.861716 
L 362.033261 183.649247 
L 365.32724 189.784361 
L 368.621218 195.647809 
L 371.915197 201.004669 
L 375.209176 203.992868 
L 378.503155 206.981068 
L 381.797133 209.969267 
L 385.091112 212.830125 
L 388.385091 210.510612 
L 391.67907 208.191099 
L 394.973048 205.871585 
L 398.267027 203.552072 
L 401.561006 201.232559 
L 404.854985 197.016297 
L 408.148963 192.041713 
L 411.442942 186.918208 
L 414.736921 181.133222 
L 418.030899 174.735416 
L 421.324878 167.290558 
L 424.618857 159.845701 
L 427.912836 152.400843 
L 431.206814 144.955985 
L 434.500793 137.511127 
L 437.794772 130.06627 
L 441.088751 122.621412 
L 444.382729 115.176554 
L 447.676708 107.731696 
L 450.970687 100.286838 
L 454.264666 92.841981 
L 457.558644 85.397123 
L 460.852623 77.952265 
L 464.146602 70.507407 
L 467.440581 63.06255 
L 470.734559 55.617692 
L 474.028538 48.172834 
L 477.322517 40.727976 
L 480.616496 33.283118 
L 483.910474 31.390125 
L 487.204453 34.47388 
L 490.498432 37.557634 
L 493.792411 40.641389 
L 497.086389 43.725143 
L 500.380368 46.808898 
L 503.674347 49.892652 
L 506.968326 52.976407 
L 510.262304 56.060161 
L 513.556283 62.018171 
L 516.850262 68.130102 
L 520.144241 74.242033 
L 523.438219 80.353964 
L 526.732198 86.465895 
L 530.026177 92.577826 
L 533.320156 98.689757 
L 536.614134 104.801688 
L 539.908113 110.913619 
L 543.202092 117.02555 
" clip-path="url(#p049e50f59a)" style="fill: none; stroke: #ff7f0e; stroke-width: 1.5; stroke-linecap: square"/>
   </g>
   <g id="patch_8">
    <path d="M 325.305398 221.902125 
L 325.305398 22.318125 
" style="fill: none; stroke: #000000; stroke-width: 0.8; stroke-linejoin: miter; stroke-linecap: square"/>
   </g>
   <g id="patch_9">
    <path d="M 553.578125 221.902125 
L 553.578125 22.318125 
" style="fill: none; stroke: #000000; stroke-width: 0.8; stroke-linejoin: miter; stroke-linecap: square"/>
   </g>
   <g id="patch_10">
    <path d="M 325.305398 221.902125 
L 553.578125 221.902125 
" style="fill: none; stroke: #000000; stroke-width: 0.8; stroke-linejoin: miter; stroke-linecap: square"/>
   </g>
   <g id="patch_11">
    <path d="M 325.305398 22.318125 
L 553.578125 22.318125 
" style="fill: none; stroke: #000000; stroke-width: 0.8; stroke-linejoin: miter; stroke-linecap: square"/>
   </g>
   <g id="text_24">
    <!-- Learned function (final MSE 1.71e-03) -->
    <g transform="translate(325.798011 16.318125) scale(0.12 -0.12)">
     <defs>
      <path id="DejaVuSans-4c" d="M 628 4666 
L 1259 4666 
L 1259 531 
L 3531 531 
L 3531 0 
L 628 0 
L 628 4666 
z
" transform="scale(0.015625)"/>
      <path id="DejaVuSans-66" d="M 2375 4863 
L 2375 4384 
L 1825 4384 
Q 1516 4384 1395 4259 
Q 1275 4134 1275 3809 
L 1275 3500 
L 2222 3500 
L 2222 3053 
L 1275 3053 
L 1275 0 
L 697 0 
L 697 3053 
L 147 3053 
L 147 3500 
L 697 3500 
L 697 3744 
Q 697 4328 969 4595 
Q 1241 4863 1831 4863 
L 2375 4863 
z
" transform="scale(0.015625)"/>
      <path id="DejaVuSans-4d" d="M 628 4666 
L 1569 4666 
L 2759 1491 
L 3956 4666 
L 4897 4666 
L 4897 0 
L 4281 0 
L 4281 4097 
L 3078 897 
L 2444 897 
L 1241 4097 
L 1241 0 
L 628 0 
L 628 4666 
z
" transform="scale(0.015625)"/>
      <path id="DejaVuSans-53" d="M 3425 4513 
L 3425 3897 
Q 3066 4069 2747 4153 
Q 2428 4238 2131 4238 
Q 1616 4238 1336 4038 
Q 1056 3838 1056 3469 
Q 1056 3159 1242 3001 
Q 1428 2844 1947 2747 
L 2328 2669 
Q 3034 2534 3370 2195 
Q 3706 1856 3706 1288 
Q 3706 609 3251 259 
Q 2797 -91 1919 -91 
Q 1588 -91 1214 -16 
Q 841 59 441 206 
L 441 856 
Q 825 641 1194 531 
Q 1563 422 1919 422 
Q 2459 422 2753 634 
Q 3047 847 3047 1241 
Q 3047 1584 2836 1778 
Q 2625 1972 2144 2069 
L 1759 2144 
Q 1053 2284 737 2584 
Q 422 2884 422 3419 
Q 422 4038 858 4394 
Q 1294 4750 2059 4750 
Q 2388 4750 2728 4690 
Q 3069 4631 3425 4513 
z
" transform="scale(0.015625)"/>
      <path id="DejaVuSans-45" d="M 628 4666 
L 3578 4666 
L 3578 4134 
L 1259 4134 
L 1259 2753 
L 3481 2753 
L 3481 2222 
L 1259 2222 
L 1259 531 
L 3634 531 
L 3634 0 
L 628 0 
L 628 4666 
z
" transform="scale(0.015625)"/>
      <path id="DejaVuSans-33" d="M 2597 2516 
Q 3050 2419 3304 2112 
Q 3559 1806 3559 1356 
Q 3559 666 3084 287 
Q 2609 -91 1734 -91 
Q 1441 -91 1130 -33 
Q 819 25 488 141 
L 488 750 
Q 750 597 1062 519 
Q 1375 441 1716 441 
Q 2309 441 2620 675 
Q 2931 909 2931 1356 
Q 2931 1769 2642 2001 
Q 2353 2234 1838 2234 
L 1294 2234 
L 1294 2753 
L 1863 2753 
Q 2328 2753 2575 2939 
Q 2822 3125 2822 3475 
Q 2822 3834 2567 4026 
Q 2313 4219 1838 4219 
Q 1578 4219 1281 4162 
Q 984 4106 628 3988 
L 628 4550 
Q 988 4650 1302 4700 
Q 1616 4750 1894 4750 
Q 2613 4750 3031 4423 
Q 3450 4097 3450 3541 
Q 3450 3153 3228 2886 
Q 3006 2619 2597 2516 
z
" transform="scale(0.015625)"/>
     </defs>
     <use xlink:href="#DejaVuSans-4c"/>
     <use xlink:href="#DejaVuSans-65" transform="translate(53.962891 0)"/>
     <use xlink:href="#DejaVuSans-61" transform="translate(115.486328 0)"/>
     <use xlink:href="#DejaVuSans-72" transform="translate(176.765625 0)"/>
     <use xlink:href="#DejaVuSans-6e" transform="translate(216.128906 0)"/>
     <use xlink:href="#DejaVuSans-65" transform="translate(279.507812 0)"/>
     <use xlink:href="#DejaVuSans-64" transform="translate(341.03125 0)"/>
     <use xlink:href="#DejaVuSans-20" transform="translate(404.507812 0)"/>
     <use xlink:href="#DejaVuSans-66" transform="translate(436.294922 0)"/>
     <use xlink:href="#DejaVuSans-75" transform="translate(471.5 0)"/>
     <use xlink:href="#DejaVuSans-6e" transform="translate(534.878906 0)"/>
     <use xlink:href="#DejaVuSans-63" transform="translate(598.257812 0)"/>
     <use xlink:href="#DejaVuSans-74" transform="translate(653.238281 0)"/>
     <use xlink:href="#DejaVuSans-69" transform="translate(692.447266 0)"/>
     <use xlink:href="#DejaVuSans-6f" transform="translate(720.230469 0)"/>
     <use xlink:href="#DejaVuSans-6e" transform="translate(781.412109 0)"/>
     <use xlink:href="#DejaVuSans-20" transform="translate(844.791016 0)"/>
     <use xlink:href="#DejaVuSans-28" transform="translate(876.578125 0)"/>
     <use xlink:href="#DejaVuSans-66" transform="translate(915.591797 0)"/>
     <use xlink:href="#DejaVuSans-69" transform="translate(950.796875 0)"/>
     <use xlink:href="#DejaVuSans-6e" transform="translate(978.580078 0)"/>
     <use xlink:href="#DejaVuSans-61" transform="translate(1041.958984 0)"/>
     <use xlink:href="#DejaVuSans-6c" transform="translate(1103.238281 0)"/>
     <use xlink:href="#DejaVuSans-20" transform="translate(1131.021484 0)"/>
     <use xlink:href="#DejaVuSans-4d" transform="translate(1162.808594 0)"/>
     <use xlink:href="#DejaVuSans-53" transform="translate(1249.087891 0)"/>
     <use xlink:href="#DejaVuSans-45" transform="translate(1312.564453 0)"/>
     <use xlink:href="#DejaVuSans-20" transform="translate(1375.748047 0)"/>
     <use xlink:href="#DejaVuSans-31" transform="translate(1407.535156 0)"/>
     <use xlink:href="#DejaVuSans-2e" transform="translate(1471.158203 0)"/>
     <use xlink:href="#DejaVuSans-37" transform="translate(1502.945312 0)"/>
     <use xlink:href="#DejaVuSans-31" transform="translate(1566.568359 0)"/>
     <use xlink:href="#DejaVuSans-65" transform="translate(1630.191406 0)"/>
     <use xlink:href="#DejaVuSans-2d" transform="translate(1691.714844 0)"/>
     <use xlink:href="#DejaVuSans-30" transform="translate(1727.798828 0)"/>
     <use xlink:href="#DejaVuSans-33" transform="translate(1791.421875 0)"/>
     <use xlink:href="#DejaVuSans-29" transform="translate(1855.044922 0)"/>
    </g>
   </g>
   <g id="legend_1">
    <g id="patch_12">
     <path d="M 332.305398 59.69625 
L 432.405398 59.69625 
Q 434.405398 59.69625 434.405398 57.69625 
L 434.405398 29.318125 
Q 434.405398 27.318125 432.405398 27.318125 
L 332.305398 27.318125 
Q 330.305398 27.318125 330.305398 29.318125 
L 330.305398 57.69625 
Q 330.305398 59.69625 332.305398 59.69625 
z
" style="fill: #ffffff; opacity: 0.8; stroke: #cccccc; stroke-linejoin: miter"/>
    </g>
    <g id="line2d_72">
     <g>
      <use xlink:href="#m3761707c81" x="344.305398" y="35.418125" style="fill: #1f77b4; stroke: #1f77b4"/>
     </g>
    </g>
    <g id="text_25">
     <!-- target $\sin 2\pi x$ -->
     <g transform="translate(362.305398 38.918125) scale(0.1 -0.1)">
      <defs>
       <path id="DejaVuSans-Oblique-3c0" d="M 584 3500 
L 3938 3500 
L 3825 2925 
L 3384 2925 
L 2966 775 
Q 2922 550 2981 450 
Q 3038 353 3209 353 
Q 3256 353 3325 363 
Q 3397 369 3419 372 
L 3338 -44 
Q 3222 -84 3103 -103 
Q 2981 -122 2866 -122 
Q 2491 -122 2388 81 
Q 2284 288 2391 838 
L 2797 2925 
L 1506 2925 
L 938 0 
L 350 0 
L 919 2925 
L 472 2925 
L 584 3500 
z
" transform="scale(0.015625)"/>
      </defs>
      <use xlink:href="#DejaVuSans-74" transform="translate(0 0.015625)"/>
      <use xlink:href="#DejaVuSans-61" transform="translate(39.208984 0.015625)"/>
      <use xlink:href="#DejaVuSans-72" transform="translate(100.488281 0.015625)"/>
      <use xlink:href="#DejaVuSans-67" transform="translate(141.601562 0.015625)"/>
      <use xlink:href="#DejaVuSans-65" transform="translate(205.078125 0.015625)"/>
      <use xlink:href="#DejaVuSans-74" transform="translate(266.601562 0.015625)"/>
      <use xlink:href="#DejaVuSans-20" transform="translate(305.810547 0.015625)"/>
      <use xlink:href="#DejaVuSans-73" transform="translate(337.597656 0.015625)"/>
      <use xlink:href="#DejaVuSans-69" transform="translate(389.697266 0.015625)"/>
      <use xlink:href="#DejaVuSans-6e" transform="translate(417.480469 0.015625)"/>
      <use xlink:href="#DejaVuSans-32" transform="translate(497.095051 0.015625)"/>
      <use xlink:href="#DejaVuSans-Oblique-3c0" transform="translate(560.718098 0.015625)"/>
      <use xlink:href="#DejaVuSans-Oblique-78" transform="translate(620.923176 0.015625)"/>
     </g>
    </g>
    <g id="line2d_73">
     <path d="M 334.305398 50.116563 
L 344.305398 50.116563 
L 354.305398 50.116563 
" style="fill: none; stroke: #ff7f0e; stroke-width: 1.5; stroke-linecap: square"/>
    </g>
    <g id="text_26">
     <!-- MLP fit -->
     <g transform="translate(362.305398 53.616563) scale(0.1 -0.1)">
      <defs>
       <path id="DejaVuSans-50" d="M 1259 4147 
L 1259 2394 
L 2053 2394 
Q 2494 2394 2734 2622 
Q 2975 2850 2975 3272 
Q 2975 3691 2734 3919 
Q 2494 4147 2053 4147 
L 1259 4147 
z
M 628 4666 
L 2053 4666 
Q 2838 4666 3239 4311 
Q 3641 3956 3641 3272 
Q 3641 2581 3239 2228 
Q 2838 1875 2053 1875 
L 1259 1875 
L 1259 0 
L 628 0 
L 628 4666 
z
" transform="scale(0.015625)"/>
      </defs>
      <use xlink:href="#DejaVuSans-4d"/>
      <use xlink:href="#DejaVuSans-4c" transform="translate(86.279297 0)"/>
      <use xlink:href="#DejaVuSans-50" transform="translate(141.992188 0)"/>
      <use xlink:href="#DejaVuSans-20" transform="translate(202.294922 0)"/>
      <use xlink:href="#DejaVuSans-66" transform="translate(234.082031 0)"/>
      <use xlink:href="#DejaVuSans-69" transform="translate(269.287109 0)"/>
      <use xlink:href="#DejaVuSans-74" transform="translate(297.070312 0)"/>
     </g>
    </g>
   </g>
  </g>
 </g>
 <defs>
  <clipPath id="p6b99f52032">
   <rect x="51.378125" y="22.318125" width="228.272727" height="199.584"/>
  </clipPath>
  <clipPath id="p049e50f59a">
   <rect x="325.305398" y="22.318125" width="228.272727" height="199.584"/>
  </clipPath>
 </defs>
</svg>
