<?xml version="1.0" encoding="UTF-8" standalone="no"?>
<!DOCTYPE svg PUBLIC "-//W3C//DTD SVG 1.1//EN"
 "http://www.w3.org/Graphics/SVG/1.1/DTD/svg11.dtd">
<!-- Generated by graphviz version 15.0.0 (20260523.1842)
 -->
<!-- Pages: 1 -->
<svg width="329pt" height="142pt"
 viewBox="0.00 0.00 329.00 142.00" xmlns="http://www.w3.org/2000/svg" xmlns:xlink="http://www.w3.org/1999/xlink">
<g id="graph0" class="graph" transform="scale(1 1) rotate(0) translate(4 137.5)">
<polygon fill="white" stroke="none" points="-4,4 -4,-137.5 325,-137.5 325,4 -4,4"/>
<!-- n0 -->
<g id="node1" class="node">
<title>n0</title>
<polygon fill="none" stroke="black" points="85.75,-57.5 0,-57.5 0,0 85.75,0 85.75,-57.5"/>
<text xml:space="preserve" text-anchor="middle" x="42.88" y="-40.2" font-family="Times,serif" font-size="14.00">a</text>
<text xml:space="preserve" text-anchor="middle" x="42.88" y="-23.7" font-family="Times,serif" font-size="14.00">data=2.000</text>
<text xml:space="preserve" text-anchor="middle" x="42.88" y="-7.2" font-family="Times,serif" font-size="14.00">grad=10.389</text>
</g>
<!-- n2 -->
<g id="node3" class="node">
<title>n2</title>
<polygon fill="none" stroke="black" points="200.75,-133.5 121.75,-133.5 121.75,-76 200.75,-76 200.75,-133.5"/>
<text xml:space="preserve" text-anchor="middle" x="161.25" y="-116.2" font-family="Times,serif" font-size="14.00">*</text>
<text xml:space="preserve" text-anchor="middle" x="161.25" y="-99.7" font-family="Times,serif" font-size="14.00">data=6.000</text>
<text xml:space="preserve" text-anchor="middle" x="161.25" y="-83.2" font-family="Times,serif" font-size="14.00">grad=1.000</text>
</g>
<!-- n0&#45;&gt;n2 -->
<g id="edge1" class="edge">
<title>n0&#45;&gt;n2</title>
<path fill="none" stroke="black" d="M86.22,-56.4C94.62,-61.89 103.51,-67.69 112.09,-73.3"/>
<polygon fill="black" stroke="black" points="110.05,-76.15 120.34,-78.69 113.88,-70.29 110.05,-76.15"/>
</g>
<!-- n3 -->
<g id="node4" class="node">
<title>n3</title>
<polygon fill="none" stroke="black" points="200.75,-57.5 121.75,-57.5 121.75,0 200.75,0 200.75,-57.5"/>
<text xml:space="preserve" text-anchor="middle" x="161.25" y="-40.2" font-family="Times,serif" font-size="14.00">exp</text>
<text xml:space="preserve" text-anchor="middle" x="161.25" y="-23.7" font-family="Times,serif" font-size="14.00">data=7.389</text>
<text xml:space="preserve" text-anchor="middle" x="161.25" y="-7.2" font-family="Times,serif" font-size="14.00">grad=1.000</text>
</g>
<!-- n0&#45;&gt;n3 -->
<g id="edge3" class="edge">
<title>n0&#45;&gt;n3</title>
<path fill="none" stroke="black" d="M86.22,-28.75C93.99,-28.75 102.17,-28.75 110.15,-28.75"/>
<polygon fill="black" stroke="black" points="110.1,-32.25 120.1,-28.75 110.1,-25.25 110.1,-32.25"/>
</g>
<!-- n1 -->
<g id="node2" class="node">
<title>n1</title>
<polygon fill="none" stroke="black" points="82.38,-133.5 3.38,-133.5 3.38,-76 82.38,-76 82.38,-133.5"/>
<text xml:space="preserve" text-anchor="middle" x="42.88" y="-116.2" font-family="Times,serif" font-size="14.00">b</text>
<text xml:space="preserve" text-anchor="middle" x="42.88" y="-99.7" font-family="Times,serif" font-size="14.00">data=3.000</text>
<text xml:space="preserve" text-anchor="middle" x="42.88" y="-83.2" font-family="Times,serif" font-size="14.00">grad=2.000</text>
</g>
<!-- n1&#45;&gt;n2 -->
<g id="edge2" class="edge">
<title>n1&#45;&gt;n2</title>
<path fill="none" stroke="black" d="M82.63,-104.75C91.37,-104.75 100.77,-104.75 109.91,-104.75"/>
<polygon fill="black" stroke="black" points="109.76,-108.25 119.76,-104.75 109.76,-101.25 109.76,-108.25"/>
</g>
<!-- n4 -->
<g id="node5" class="node">
<title>n4</title>
<polygon fill="none" stroke="black" points="321,-95.5 236.75,-95.5 236.75,-38 321,-38 321,-95.5"/>
<text xml:space="preserve" text-anchor="middle" x="278.88" y="-78.2" font-family="Times,serif" font-size="14.00">+</text>
<text xml:space="preserve" text-anchor="middle" x="278.88" y="-61.7" font-family="Times,serif" font-size="14.00">data=13.389</text>
<text xml:space="preserve" text-anchor="middle" x="278.88" y="-45.2" font-family="Times,serif" font-size="14.00">grad=1.000</text>
</g>
<!-- n2&#45;&gt;n4 -->
<g id="edge4" class="edge">
<title>n2&#45;&gt;n4</title>
<path fill="none" stroke="black" d="M201.07,-91.99C209.01,-89.38 217.48,-86.6 225.8,-83.86"/>
<polygon fill="black" stroke="black" points="226.73,-87.24 235.14,-80.79 224.55,-80.59 226.73,-87.24"/>
</g>
<!-- n3&#45;&gt;n4 -->
<g id="edge5" class="edge">
<title>n3&#45;&gt;n4</title>
<path fill="none" stroke="black" d="M201.07,-41.51C209.01,-44.12 217.48,-46.9 225.8,-49.64"/>
<polygon fill="black" stroke="black" points="224.55,-52.91 235.14,-52.71 226.73,-46.26 224.55,-52.91"/>
</g>
</g>
</svg>
