<?xml version="1.0" encoding="UTF-8" standalone="no"?>
<!DOCTYPE svg PUBLIC "-//W3C//DTD SVG 1.1//EN"
 "http://www.w3.org/Graphics/SVG/1.1/DTD/svg11.dtd">
<!-- Generated by graphviz version 15.0.0 (20260523.1842)
 -->
<!-- Pages: 1 -->
<svg width="952pt" height="294pt"
 viewBox="0.00 0.00 952.00 294.00" xmlns="http://www.w3.org/2000/svg" xmlns:xlink="http://www.w3.org/1999/xlink">
<g id="graph0" class="graph" transform="scale(1 1) rotate(0) translate(4 289.5)">
<polygon fill="white" stroke="none" points="-4,4 -4,-289.5 948,-289.5 948,4 -4,4"/>
<!-- n0 -->
<g id="node1" class="node">
<title>n0</title>
<polygon fill="none" stroke="black" points="86.5,-285.5 0,-285.5 0,-228 86.5,-228 86.5,-285.5"/>
<text xml:space="preserve" text-anchor="middle" x="43.25" y="-268.2" font-family="Times,serif" font-size="14.00">X</text>
<text xml:space="preserve" text-anchor="middle" x="43.25" y="-251.7" font-family="Times,serif" font-size="14.00">shape=4×3</text>
<text xml:space="preserve" text-anchor="middle" x="43.25" y="-235.2" font-family="Times,serif" font-size="14.00">‖grad‖=0.000</text>
</g>
<!-- n2 -->
<g id="node3" class="node">
<title>n2</title>
<polygon fill="none" stroke="black" points="209,-247.5 122.5,-247.5 122.5,-190 209,-190 209,-247.5"/>
<text xml:space="preserve" text-anchor="middle" x="165.75" y="-230.2" font-family="Times,serif" font-size="14.00">@</text>
<text xml:space="preserve" text-anchor="middle" x="165.75" y="-213.7" font-family="Times,serif" font-size="14.00">shape=4×2</text>
<text xml:space="preserve" text-anchor="middle" x="165.75" y="-197.2" font-family="Times,serif" font-size="14.00">‖grad‖=0.758</text>
</g>
<!-- n0&#45;&gt;n2 -->
<g id="edge1" class="edge">
<title>n0&#45;&gt;n2</title>
<path fill="none" stroke="black" d="M86.73,-243.35C94.74,-240.83 103.21,-238.16 111.5,-235.54"/>
<polygon fill="black" stroke="black" points="112.32,-238.96 120.8,-232.61 110.21,-232.28 112.32,-238.96"/>
</g>
<!-- n1 -->
<g id="node2" class="node">
<title>n1</title>
<polygon fill="none" stroke="black" points="86.5,-209.5 0,-209.5 0,-152 86.5,-152 86.5,-209.5"/>
<text xml:space="preserve" text-anchor="middle" x="43.25" y="-192.2" font-family="Times,serif" font-size="14.00">W</text>
<text xml:space="preserve" text-anchor="middle" x="43.25" y="-175.7" font-family="Times,serif" font-size="14.00">shape=3×2</text>
<text xml:space="preserve" text-anchor="middle" x="43.25" y="-159.2" font-family="Times,serif" font-size="14.00">‖grad‖=0.742</text>
</g>
<!-- n1&#45;&gt;n2 -->
<g id="edge2" class="edge">
<title>n1&#45;&gt;n2</title>
<path fill="none" stroke="black" d="M86.73,-194.15C94.74,-196.67 103.21,-199.34 111.5,-201.96"/>
<polygon fill="black" stroke="black" points="110.21,-205.22 120.8,-204.89 112.32,-198.54 110.21,-205.22"/>
</g>
<!-- n4 -->
<g id="node5" class="node">
<title>n4</title>
<polygon fill="none" stroke="black" points="331.5,-209.5 245,-209.5 245,-152 331.5,-152 331.5,-209.5"/>
<text xml:space="preserve" text-anchor="middle" x="288.25" y="-192.2" font-family="Times,serif" font-size="14.00">+</text>
<text xml:space="preserve" text-anchor="middle" x="288.25" y="-175.7" font-family="Times,serif" font-size="14.00">shape=4×2</text>
<text xml:space="preserve" text-anchor="middle" x="288.25" y="-159.2" font-family="Times,serif" font-size="14.00">‖grad‖=0.758</text>
</g>
<!-- n2&#45;&gt;n4 -->
<g id="edge3" class="edge">
<title>n2&#45;&gt;n4</title>
<path fill="none" stroke="black" d="M209.23,-205.35C217.24,-202.83 225.71,-200.16 234,-197.54"/>
<polygon fill="black" stroke="black" points="234.82,-200.96 243.3,-194.61 232.71,-194.28 234.82,-200.96"/>
</g>
<!-- n3 -->
<g id="node4" class="node">
<title>n3</title>
<polygon fill="none" stroke="black" points="209,-171.5 122.5,-171.5 122.5,-114 209,-114 209,-171.5"/>
<text xml:space="preserve" text-anchor="middle" x="165.75" y="-154.2" font-family="Times,serif" font-size="14.00">b</text>
<text xml:space="preserve" text-anchor="middle" x="165.75" y="-137.7" font-family="Times,serif" font-size="14.00">shape=2</text>
<text xml:space="preserve" text-anchor="middle" x="165.75" y="-121.2" font-family="Times,serif" font-size="14.00">‖grad‖=0.928</text>
</g>
<!-- n3&#45;&gt;n4 -->
<g id="edge4" class="edge">
<title>n3&#45;&gt;n4</title>
<path fill="none" stroke="black" d="M209.23,-156.15C217.24,-158.67 225.71,-161.34 234,-163.96"/>
<polygon fill="black" stroke="black" points="232.71,-167.22 243.3,-166.89 234.82,-160.54 232.71,-167.22"/>
</g>
<!-- n5 -->
<g id="node6" class="node">
<title>n5</title>
<polygon fill="none" stroke="black" points="454,-209.5 367.5,-209.5 367.5,-152 454,-152 454,-209.5"/>
<text xml:space="preserve" text-anchor="middle" x="410.75" y="-192.2" font-family="Times,serif" font-size="14.00">tanh</text>
<text xml:space="preserve" text-anchor="middle" x="410.75" y="-175.7" font-family="Times,serif" font-size="14.00">shape=4×2</text>
<text xml:space="preserve" text-anchor="middle" x="410.75" y="-159.2" font-family="Times,serif" font-size="14.00">‖grad‖=0.758</text>
</g>
<!-- n4&#45;&gt;n5 -->
<g id="edge5" class="edge">
<title>n4&#45;&gt;n5</title>
<path fill="none" stroke="black" d="M331.73,-180.75C339.56,-180.75 347.83,-180.75 355.94,-180.75"/>
<polygon fill="black" stroke="black" points="355.73,-184.25 365.73,-180.75 355.73,-177.25 355.73,-184.25"/>
</g>
<!-- n9 -->
<g id="node10" class="node">
<title>n9</title>
<polygon fill="none" stroke="black" points="576.5,-171.5 490,-171.5 490,-114 576.5,-114 576.5,-171.5"/>
<text xml:space="preserve" text-anchor="middle" x="533.25" y="-154.2" font-family="Times,serif" font-size="14.00">+</text>
<text xml:space="preserve" text-anchor="middle" x="533.25" y="-137.7" font-family="Times,serif" font-size="14.00">shape=4×2</text>
<text xml:space="preserve" text-anchor="middle" x="533.25" y="-121.2" font-family="Times,serif" font-size="14.00">‖grad‖=0.758</text>
</g>
<!-- n5&#45;&gt;n9 -->
<g id="edge8" class="edge">
<title>n5&#45;&gt;n9</title>
<path fill="none" stroke="black" d="M454.23,-167.35C462.24,-164.83 470.71,-162.16 479,-159.54"/>
<polygon fill="black" stroke="black" points="479.82,-162.96 488.3,-156.61 477.71,-156.28 479.82,-162.96"/>
</g>
<!-- n6 -->
<g id="node7" class="node">
<title>n6</title>
<polygon fill="none" stroke="black" points="331.5,-133.5 245,-133.5 245,-76 331.5,-76 331.5,-133.5"/>
<text xml:space="preserve" text-anchor="middle" x="288.25" y="-116.2" font-family="Times,serif" font-size="14.00">y</text>
<text xml:space="preserve" text-anchor="middle" x="288.25" y="-99.7" font-family="Times,serif" font-size="14.00">shape=4×2</text>
<text xml:space="preserve" text-anchor="middle" x="288.25" y="-83.2" font-family="Times,serif" font-size="14.00">‖grad‖=0.758</text>
</g>
<!-- n8 -->
<g id="node9" class="node">
<title>n8</title>
<polygon fill="none" stroke="black" points="454,-133.5 367.5,-133.5 367.5,-76 454,-76 454,-133.5"/>
<text xml:space="preserve" text-anchor="middle" x="410.75" y="-116.2" font-family="Times,serif" font-size="14.00">*</text>
<text xml:space="preserve" text-anchor="middle" x="410.75" y="-99.7" font-family="Times,serif" font-size="14.00">shape=4×2</text>
<text xml:space="preserve" text-anchor="middle" x="410.75" y="-83.2" font-family="Times,serif" font-size="14.00">‖grad‖=0.758</text>
</g>
<!-- n6&#45;&gt;n8 -->
<g id="edge6" class="edge">
<title>n6&#45;&gt;n8</title>
<path fill="none" stroke="black" d="M331.73,-104.75C339.56,-104.75 347.83,-104.75 355.94,-104.75"/>
<polygon fill="black" stroke="black" points="355.73,-108.25 365.73,-104.75 355.73,-101.25 355.73,-108.25"/>
</g>
<!-- n7 -->
<g id="node8" class="node">
<title>n7</title>
<polygon fill="none" stroke="black" points="331.5,-57.5 245,-57.5 245,0 331.5,0 331.5,-57.5"/>
<text xml:space="preserve" text-anchor="middle" x="288.25" y="-40.2" font-family="Times,serif" font-size="14.00">op</text>
<text xml:space="preserve" text-anchor="middle" x="288.25" y="-23.7" font-family="Times,serif" font-size="14.00">shape=scalar</text>
<text xml:space="preserve" text-anchor="middle" x="288.25" y="-7.2" font-family="Times,serif" font-size="14.00">‖grad‖=2.299</text>
</g>
<!-- n7&#45;&gt;n8 -->
<g id="edge7" class="edge">
<title>n7&#45;&gt;n8</title>
<path fill="none" stroke="black" d="M331.73,-55.54C340.1,-60.82 348.97,-66.42 357.62,-71.87"/>
<polygon fill="black" stroke="black" points="355.64,-74.76 365.96,-77.13 359.37,-68.84 355.64,-74.76"/>
</g>
<!-- n8&#45;&gt;n9 -->
<g id="edge9" class="edge">
<title>n8&#45;&gt;n9</title>
<path fill="none" stroke="black" d="M454.23,-118.15C462.24,-120.67 470.71,-123.34 479,-125.96"/>
<polygon fill="black" stroke="black" points="477.71,-129.22 488.3,-128.89 479.82,-122.54 477.71,-129.22"/>
</g>
<!-- n10 -->
<g id="node11" class="node">
<title>n10</title>
<polygon fill="none" stroke="black" points="699,-171.5 612.5,-171.5 612.5,-114 699,-114 699,-171.5"/>
<text xml:space="preserve" text-anchor="middle" x="655.75" y="-154.2" font-family="Times,serif" font-size="14.00">*</text>
<text xml:space="preserve" text-anchor="middle" x="655.75" y="-137.7" font-family="Times,serif" font-size="14.00">shape=4×2</text>
<text xml:space="preserve" text-anchor="middle" x="655.75" y="-121.2" font-family="Times,serif" font-size="14.00">‖grad‖=0.354</text>
</g>
<!-- n9&#45;&gt;n10 -->
<g id="edge10" class="edge">
<title>n9&#45;&gt;n10</title>
<path fill="none" stroke="black" d="M576.73,-136.27C584.56,-136.03 592.83,-135.95 600.94,-136.03"/>
<polygon fill="black" stroke="black" points="600.66,-139.53 610.73,-136.24 600.8,-132.53 600.66,-139.53"/>
</g>
<!-- n9&#45;&gt;n10 -->
<g id="edge11" class="edge">
<title>n9&#45;&gt;n10</title>
<path fill="none" stroke="black" d="M576.73,-149.23C584.56,-149.47 592.83,-149.55 600.94,-149.47"/>
<polygon fill="black" stroke="black" points="600.8,-152.97 610.73,-149.26 600.66,-145.97 600.8,-152.97"/>
</g>
<!-- n11 -->
<g id="node12" class="node">
<title>n11</title>
<polygon fill="none" stroke="black" points="821.5,-171.5 735,-171.5 735,-114 821.5,-114 821.5,-171.5"/>
<text xml:space="preserve" text-anchor="middle" x="778.25" y="-154.2" font-family="Times,serif" font-size="14.00">sum</text>
<text xml:space="preserve" text-anchor="middle" x="778.25" y="-137.7" font-family="Times,serif" font-size="14.00">shape=scalar</text>
<text xml:space="preserve" text-anchor="middle" x="778.25" y="-121.2" font-family="Times,serif" font-size="14.00">‖grad‖=0.125</text>
</g>
<!-- n10&#45;&gt;n11 -->
<g id="edge12" class="edge">
<title>n10&#45;&gt;n11</title>
<path fill="none" stroke="black" d="M699.23,-142.75C707.06,-142.75 715.33,-142.75 723.44,-142.75"/>
<polygon fill="black" stroke="black" points="723.23,-146.25 733.23,-142.75 723.23,-139.25 723.23,-146.25"/>
</g>
<!-- n13 -->
<g id="node14" class="node">
<title>n13</title>
<polygon fill="none" stroke="black" points="944,-133.5 857.5,-133.5 857.5,-76 944,-76 944,-133.5"/>
<text xml:space="preserve" text-anchor="middle" x="900.75" y="-116.2" font-family="Times,serif" font-size="14.00">*</text>
<text xml:space="preserve" text-anchor="middle" x="900.75" y="-99.7" font-family="Times,serif" font-size="14.00">shape=scalar</text>
<text xml:space="preserve" text-anchor="middle" x="900.75" y="-83.2" font-family="Times,serif" font-size="14.00">‖grad‖=1.000</text>
</g>
<!-- n11&#45;&gt;n13 -->
<g id="edge13" class="edge">
<title>n11&#45;&gt;n13</title>
<path fill="none" stroke="black" d="M821.73,-129.35C829.74,-126.83 838.21,-124.16 846.5,-121.54"/>
<polygon fill="black" stroke="black" points="847.32,-124.96 855.8,-118.61 845.21,-118.28 847.32,-124.96"/>
</g>
<!-- n12 -->
<g id="node13" class="node">
<title>n12</title>
<polygon fill="none" stroke="black" points="821.5,-95.5 735,-95.5 735,-38 821.5,-38 821.5,-95.5"/>
<text xml:space="preserve" text-anchor="middle" x="778.25" y="-78.2" font-family="Times,serif" font-size="14.00">op</text>
<text xml:space="preserve" text-anchor="middle" x="778.25" y="-61.7" font-family="Times,serif" font-size="14.00">shape=scalar</text>
<text xml:space="preserve" text-anchor="middle" x="778.25" y="-45.2" font-family="Times,serif" font-size="14.00">‖grad‖=9.195</text>
</g>
<!-- n12&#45;&gt;n13 -->
<g id="edge14" class="edge">
<title>n12&#45;&gt;n13</title>
<path fill="none" stroke="black" d="M821.73,-80.15C829.74,-82.67 838.21,-85.34 846.5,-87.96"/>
<polygon fill="black" stroke="black" points="845.21,-91.22 855.8,-90.89 847.32,-84.54 845.21,-91.22"/>
</g>
</g>
</svg>
